<svg width="34" height="96" viewBox="0 0 34 96" fill="none" xmlns="http://www.w3.org/2000/svg">
<mask id="path-1-outside-1_598_576" maskUnits="userSpaceOnUse" x="0" y="0" width="34" height="96" fill="black">
<rect fill="white" width="34" height="96"/>
<path d="M1.608 18.2V1.688H32.456V95H14.024V18.2H1.608Z"/>
</mask>
<path d="M1.608 18.2H0.608V19.2H1.608V18.2ZM1.608 1.688V0.687996H0.608V1.688H1.608ZM32.456 1.688H33.456V0.687996H32.456V1.688ZM32.456 95V96H33.456V95H32.456ZM14.024 95H13.024V96H14.024V95ZM14.024 18.2H15.024V17.2H14.024V18.2ZM2.608 18.2V1.688H0.608V18.2H2.608ZM1.608 2.688H32.456V0.687996H1.608V2.688ZM31.456 1.688V95H33.456V1.688H31.456ZM32.456 94H14.024V96H32.456V94ZM15.024 95V18.2H13.024V95H15.024ZM14.024 17.2H1.608V19.2H14.024V17.2Z" fill="white" mask="url(#path-1-outside-1_598_576)"/>
</svg>
