<svg width="66" height="97" viewBox="0 0 66 97" fill="none" xmlns="http://www.w3.org/2000/svg">
<mask id="path-1-outside-1_598_585" maskUnits="userSpaceOnUse" x="0" y="0" width="66" height="97" fill="black">
<rect fill="white" width="66" height="97"/>
<path d="M8.416 76.776C16.608 69.9493 23.136 64.2747 28 59.752C32.864 55.144 36.9173 50.3653 40.16 45.416C43.4027 40.4667 45.024 35.6027 45.024 30.824C45.024 26.472 44 23.0587 41.952 20.584C39.904 18.1093 36.7467 16.872 32.48 16.872C28.2133 16.872 24.928 18.3227 22.624 21.224C20.32 24.04 19.1253 27.9227 19.04 32.872H1.632C1.97333 22.632 5.00267 14.8667 10.72 9.576C16.5227 4.28533 23.8613 1.63999 32.736 1.63999C42.464 1.63999 49.9307 4.24266 55.136 9.448C60.3413 14.568 62.944 21.352 62.944 29.8C62.944 36.456 61.152 42.8133 57.568 48.872C53.984 54.9307 49.888 60.2213 45.28 64.744C40.672 69.1813 34.656 74.5573 27.232 80.872H64.992V95.72H1.76V82.408L8.416 76.776Z"/>
</mask>
<path d="M8.416 76.776L7.7758 76.0078L7.77006 76.0126L8.416 76.776ZM28 59.752L28.681 60.4844L28.6877 60.478L28 59.752ZM40.16 45.416L40.9965 45.964L40.16 45.416ZM41.952 20.584L41.1816 21.2216L41.952 20.584ZM22.624 21.224L23.398 21.8572L23.4026 21.8516L23.4071 21.8459L22.624 21.224ZM19.04 32.872V33.872H20.0229L20.0399 32.8892L19.04 32.872ZM1.632 32.872L0.632555 32.8387L0.598112 33.872H1.632V32.872ZM10.72 9.576L10.0462 8.83702L10.0408 8.84203L10.72 9.576ZM55.136 9.448L54.4289 10.1551L54.4348 10.1609L55.136 9.448ZM57.568 48.872L58.4287 49.3811L57.568 48.872ZM45.28 64.744L45.9737 65.4644L45.9805 65.4577L45.28 64.744ZM27.232 80.872L26.5841 80.1103L24.5129 81.872H27.232V80.872ZM64.992 80.872H65.992V79.872H64.992V80.872ZM64.992 95.72V96.72H65.992V95.72H64.992ZM1.76 95.72H0.76V96.72H1.76V95.72ZM1.76 82.408L1.11406 81.6446L0.76 81.9442V82.408H1.76ZM9.05618 77.5442C17.2549 70.712 23.7982 65.0244 28.6809 60.4843L27.3191 59.0197C22.4738 63.5249 15.9611 69.1867 7.77582 76.0078L9.05618 77.5442ZM28.6877 60.478C33.6008 55.8235 37.7061 50.9861 40.9965 45.964L39.3235 44.868C36.1285 49.7445 32.1272 54.4645 27.3123 59.026L28.6877 60.478ZM40.9965 45.964C44.3203 40.8907 46.024 35.8392 46.024 30.824H44.024C44.024 35.3661 42.485 40.0426 39.3235 44.868L40.9965 45.964ZM46.024 30.824C46.024 26.3218 44.9641 22.6551 42.7224 19.9464L41.1816 21.2216C43.0359 23.4622 44.024 26.6222 44.024 30.824H46.024ZM42.7224 19.9464C40.4266 17.1724 36.9403 15.872 32.48 15.872V17.872C36.5531 17.872 39.3814 19.0463 41.1816 21.2216L42.7224 19.9464ZM32.48 15.872C27.9604 15.872 24.3648 17.4239 21.8409 20.6021L23.4071 21.8459C25.4912 19.2215 28.4663 17.872 32.48 17.872V15.872ZM21.85 20.5908C19.3599 23.6343 18.128 27.761 18.0401 32.8548L20.0399 32.8892C20.1227 28.0844 21.2801 24.4457 23.398 21.8572L21.85 20.5908ZM19.04 31.872H1.632V33.872H19.04V31.872ZM2.63145 32.9053C2.9668 22.8447 5.93398 15.3673 11.3992 10.31L10.0408 8.84203C4.07136 14.366 0.979869 22.4193 0.632555 32.8387L2.63145 32.9053ZM11.3938 10.315C16.988 5.21434 24.0757 2.63999 32.736 2.63999V0.639992C23.6469 0.639992 16.0574 3.35632 10.0462 8.83704L11.3938 10.315ZM32.736 2.63999C42.2871 2.63999 49.4655 5.1917 54.4289 10.1551L55.8431 8.74089C50.3958 3.29362 42.6409 0.639992 32.736 0.639992V2.63999ZM54.4348 10.1609C59.4187 15.0631 61.944 21.5744 61.944 29.8H63.944C63.944 21.1296 61.264 14.0729 55.8372 8.73507L54.4348 10.1609ZM61.944 29.8C61.944 36.2664 60.2056 42.4491 56.7073 48.3629L58.4287 49.3811C62.0984 43.1775 63.944 36.6456 63.944 29.8H61.944ZM56.7073 48.3629C53.1636 54.3534 49.1201 59.5738 44.5795 64.0303L45.9805 65.4577C50.6559 60.8689 54.8044 55.508 58.4287 49.3811L56.7073 48.3629ZM44.5864 64.0237C39.9987 68.4414 33.9996 73.8028 26.5841 80.1103L27.8799 81.6337C35.3124 75.3118 41.3453 69.9212 45.9736 65.4643L44.5864 64.0237ZM27.232 81.872H64.992V79.872H27.232V81.872ZM63.992 80.872V95.72H65.992V80.872H63.992ZM64.992 94.72H1.76V96.72H64.992V94.72ZM2.76 95.72V82.408H0.76V95.72H2.76ZM2.40594 83.1714L9.06194 77.5394L7.77006 76.0126L1.11406 81.6446L2.40594 83.1714Z" fill="white" mask="url(#path-1-outside-1_598_585)"/>
</svg>
