<svg width="67" height="99" viewBox="0 0 67 99" fill="none" xmlns="http://www.w3.org/2000/svg">
<mask id="path-1-outside-1_598_594" maskUnits="userSpaceOnUse" x="0" y="0" width="67" height="99" fill="black">
<rect fill="white" width="67" height="99"/>
<path d="M3.04 28.264C3.46667 19.7307 6.45333 13.16 12 8.55199C17.632 3.85866 25.0133 1.51199 34.144 1.51199C40.3733 1.51199 45.7067 2.62133 50.144 4.84C54.5813 6.97333 57.9093 9.91733 60.128 13.672C62.432 17.3413 63.584 21.5227 63.584 26.216C63.584 31.592 62.176 36.1573 59.36 39.912C56.6293 43.5813 53.344 46.056 49.504 47.336V47.848C54.4533 49.384 58.2933 52.1147 61.024 56.04C63.84 59.9653 65.248 65 65.248 71.144C65.248 76.264 64.0533 80.8293 61.664 84.84C59.36 88.8507 55.904 92.008 51.296 94.312C46.7733 96.5307 41.312 97.64 34.912 97.64C25.2693 97.64 17.4187 95.208 11.36 90.344C5.30133 85.48 2.10133 78.312 1.76 68.84H19.168C19.3387 73.0213 20.7467 76.392 23.392 78.952C26.1227 81.4267 29.8347 82.664 34.528 82.664C38.88 82.664 42.208 81.4693 44.512 79.08C46.9013 76.6053 48.096 73.448 48.096 69.608C48.096 64.488 46.4747 60.8187 43.232 58.6C39.9893 56.3813 34.9547 55.272 28.128 55.272H24.416V40.552H28.128C40.2453 40.552 46.304 36.4987 46.304 28.392C46.304 24.7227 45.1947 21.864 42.976 19.816C40.8427 17.768 37.728 16.744 33.632 16.744C29.6213 16.744 26.5067 17.8533 24.288 20.072C22.1547 22.2053 20.9173 24.936 20.576 28.264H3.04Z"/>
</mask>
<path d="M3.04 28.264L2.04125 28.2141L1.98875 29.264H3.04V28.264ZM12 8.55199L12.639 9.32119L12.6402 9.32022L12 8.55199ZM50.144 4.84L49.6968 5.73442L49.7037 5.73789L49.7107 5.74125L50.144 4.84ZM60.128 13.672L59.2671 14.1807L59.2739 14.1923L59.2811 14.2038L60.128 13.672ZM59.36 39.912L58.56 39.312L58.5578 39.315L59.36 39.912ZM49.504 47.336L49.1878 46.3873L48.504 46.6152V47.336H49.504ZM49.504 47.848H48.504V48.5847L49.2076 48.8031L49.504 47.848ZM61.024 56.04L60.2031 56.6111L60.2072 56.617L60.2115 56.6229L61.024 56.04ZM61.664 84.84L60.8049 84.3282L60.8008 84.335L60.7969 84.3419L61.664 84.84ZM51.296 94.312L51.7364 95.2098L51.7432 95.2064L51.296 94.312ZM11.36 90.344L10.734 91.1238L11.36 90.344ZM1.76 68.84V67.84H0.723315L0.760649 68.876L1.76 68.84ZM19.168 68.84L20.1672 68.7992L20.128 67.84H19.168V68.84ZM23.392 78.952L22.6966 79.6706L22.7083 79.682L22.7205 79.693L23.392 78.952ZM44.512 79.08L43.7926 78.3854L43.7922 78.3859L44.512 79.08ZM24.416 55.272H23.416V56.272H24.416V55.272ZM24.416 40.552V39.552H23.416V40.552H24.416ZM42.976 19.816L42.2835 20.5374L42.2905 20.5442L42.2977 20.5508L42.976 19.816ZM24.288 20.072L24.9951 20.7791L24.9951 20.7791L24.288 20.072ZM20.576 28.264V29.264H21.4787L21.5708 28.366L20.576 28.264ZM4.03875 28.3139C4.45426 20.0038 7.34746 13.7172 12.639 9.32118L11.361 7.7828C5.5592 12.6027 2.47908 19.4575 2.04125 28.2141L4.03875 28.3139ZM12.6402 9.32022C18.0517 4.81058 25.1881 2.51199 34.144 2.51199V0.511993C24.8385 0.511993 17.2123 2.90674 11.3598 7.78377L12.6402 9.32022ZM34.144 2.51199C40.2568 2.51199 45.4292 3.60064 49.6968 5.73442L50.5912 3.94557C45.9841 1.64202 40.4899 0.511993 34.144 0.511993V2.51199ZM49.7107 5.74125C53.9936 7.80032 57.1616 10.6177 59.2671 14.1807L60.9889 13.1633C58.657 9.21699 55.1691 6.14633 50.5773 3.93874L49.7107 5.74125ZM59.2811 14.2038C61.4768 17.7005 62.584 21.6945 62.584 26.216H64.584C64.584 21.3508 63.3873 16.9821 60.9749 13.1402L59.2811 14.2038ZM62.584 26.216C62.584 31.4085 61.2278 35.755 58.56 39.312L60.16 40.512C63.1242 36.5597 64.584 31.7755 64.584 26.216H62.584ZM58.5578 39.315C55.9328 42.8423 52.8089 45.1803 49.1878 46.3873L49.8202 48.2847C53.8791 46.9317 57.3259 44.3204 60.1622 40.509L58.5578 39.315ZM48.504 47.336V47.848H50.504V47.336H48.504ZM49.2076 48.8031C53.9632 50.2789 57.6105 52.8842 60.2031 56.6111L61.8449 55.4689C58.9762 51.3451 54.9435 48.4891 49.8004 46.8929L49.2076 48.8031ZM60.2115 56.6229C62.8761 60.3372 64.248 65.1521 64.248 71.144H66.248C66.248 64.8479 64.804 59.5935 61.8365 55.4571L60.2115 56.6229ZM64.248 71.144C64.248 76.1018 63.0932 80.4871 60.8049 84.3282L62.5231 85.3518C65.0134 81.1716 66.248 76.4262 66.248 71.144H64.248ZM60.7969 84.3419C58.6018 88.1629 55.3017 91.1911 50.8488 93.4176L51.7432 95.2064C56.5063 92.8249 60.1182 89.5384 62.5311 85.3381L60.7969 84.3419ZM50.8556 93.4142C46.5019 95.55 41.1994 96.64 34.912 96.64V98.64C41.4246 98.64 47.0447 97.5114 51.7364 95.2098L50.8556 93.4142ZM34.912 96.64C25.4407 96.64 17.8277 94.254 11.986 89.5642L10.734 91.1238C17.0096 96.162 25.098 98.64 34.912 98.64V96.64ZM11.986 89.5642C6.20318 84.9216 3.09273 78.0552 2.75935 68.804L0.760649 68.876C1.10994 78.5688 4.39949 86.0384 10.734 91.1238L11.986 89.5642ZM1.76 69.84H19.168V67.84H1.76V69.84ZM18.1688 68.8808C18.3484 73.2808 19.8412 76.9073 22.6966 79.6706L24.0874 78.2334C21.6522 75.8767 20.3289 72.7619 20.1672 68.7992L18.1688 68.8808ZM22.7205 79.693C25.6812 82.3762 29.6567 83.664 34.528 83.664V81.664C30.0127 81.664 26.5641 80.4772 24.0635 78.211L22.7205 79.693ZM34.528 83.664C39.0632 83.664 42.6858 82.4145 45.2318 79.7741L43.7922 78.3859C41.7302 80.5242 38.6968 81.664 34.528 81.664V83.664ZM45.2314 79.7746C47.8223 77.0912 49.096 73.6743 49.096 69.608H47.096C47.096 73.2216 45.9804 76.1195 43.7926 78.3854L45.2314 79.7746ZM49.096 69.608C49.096 64.2692 47.3923 60.2348 43.7967 57.7747L42.6673 59.4253C45.5571 61.4025 47.096 64.7068 47.096 69.608H49.096ZM43.7967 57.7747C40.3049 55.3856 35.0247 54.272 28.128 54.272V56.272C34.8846 56.272 39.6738 57.3771 42.6673 59.4253L43.7967 57.7747ZM28.128 54.272H24.416V56.272H28.128V54.272ZM25.416 55.272V40.552H23.416V55.272H25.416ZM24.416 41.552H28.128V39.552H24.416V41.552ZM28.128 41.552C34.2666 41.552 39.0458 40.531 42.3161 38.3431C45.6575 36.1077 47.304 32.7351 47.304 28.392H45.304C45.304 32.1555 43.9212 34.863 41.204 36.6808C38.4156 38.5463 34.1067 39.552 28.128 39.552V41.552ZM47.304 28.392C47.304 24.5084 46.1213 21.3584 43.6543 19.0812L42.2977 20.5508C44.2681 22.3696 45.304 24.9369 45.304 28.392H47.304ZM43.6685 19.0946C41.2872 16.8085 37.8855 15.744 33.632 15.744V17.744C37.5705 17.744 40.3981 18.7275 42.2835 20.5374L43.6685 19.0946ZM33.632 15.744C29.4335 15.744 26.0355 16.9103 23.5809 19.3649L24.9951 20.7791C26.9778 18.7964 29.8092 17.744 33.632 17.744V15.744ZM23.5809 19.3649C21.2671 21.6787 19.9433 24.6317 19.5812 28.162L21.5708 28.366C21.8914 25.2403 23.0423 22.7319 24.9951 20.7791L23.5809 19.3649ZM20.576 27.264H3.04V29.264H20.576V27.264Z" fill="white" mask="url(#path-1-outside-1_598_594)"/>
</svg>
