<svg width="76" height="95" viewBox="0 0 76 95" fill="none" xmlns="http://www.w3.org/2000/svg">
<mask id="path-1-outside-1_598_603" maskUnits="userSpaceOnUse" x="0" y="0" width="76" height="95" fill="black">
<rect fill="white" width="76" height="95"/>
<path d="M1.016 75.824V61.744L42.872 1.84H63.736V60.208H75V75.824H63.736V94H45.816V75.824H1.016ZM46.968 21.04L20.728 60.208H46.968V21.04Z"/>
</mask>
<path d="M1.016 75.824H0.0160003V76.824H1.016V75.824ZM1.016 61.744L0.196275 61.1712L0.0160003 61.4292V61.744H1.016ZM42.872 1.84V0.839996H42.3508L42.0523 1.26724L42.872 1.84ZM63.736 1.84H64.736V0.839996H63.736V1.84ZM63.736 60.208H62.736V61.208H63.736V60.208ZM75 60.208H76V59.208H75V60.208ZM75 75.824V76.824H76V75.824H75ZM63.736 75.824V74.824H62.736V75.824H63.736ZM63.736 94V95H64.736V94H63.736ZM45.816 94H44.816V95H45.816V94ZM45.816 75.824H46.816V74.824H45.816V75.824ZM46.968 21.04H47.968V17.7506L46.1372 20.4834L46.968 21.04ZM20.728 60.208L19.8972 59.6514L18.8544 61.208H20.728V60.208ZM46.968 60.208V61.208H47.968V60.208H46.968ZM2.016 75.824V61.744H0.0160003V75.824H2.016ZM1.83573 62.3168L43.6917 2.41275L42.0523 1.26724L0.196275 61.1712L1.83573 62.3168ZM42.872 2.84H63.736V0.839996H42.872V2.84ZM62.736 1.84V60.208H64.736V1.84H62.736ZM63.736 61.208H75V59.208H63.736V61.208ZM74 60.208V75.824H76V60.208H74ZM75 74.824H63.736V76.824H75V74.824ZM62.736 75.824V94H64.736V75.824H62.736ZM63.736 93H45.816V95H63.736V93ZM46.816 94V75.824H44.816V94H46.816ZM45.816 74.824H1.016V76.824H45.816V74.824ZM46.1372 20.4834L19.8972 59.6514L21.5588 60.7646L47.7988 21.5966L46.1372 20.4834ZM20.728 61.208H46.968V59.208H20.728V61.208ZM47.968 60.208V21.04H45.968V60.208H47.968Z" fill="white" mask="url(#path-1-outside-1_598_603)"/>
</svg>
