<svg width="20" height="21" viewBox="0 0 20 21" fill="none" xmlns="http://www.w3.org/2000/svg">
<g clip-path="url(#clip0_462_9072)">
<path d="M8.00004 18.5679C9.38005 18.5679 10.5001 17.4479 10.5001 16.0679V13.5679H8.00004C6.62003 13.5679 5.5 14.6879 5.5 16.0679C5.5 17.4479 6.62003 18.5679 8.00004 18.5679Z" fill="#0ACF83"/>
<path d="M5.5 11.0679C5.5 9.68789 6.62003 8.56787 8.00004 8.56787H10.5001V13.5679H8.00004C6.62003 13.5679 5.5 12.4479 5.5 11.0679Z" fill="#A259FF"/>
<path d="M5.5 6.06789C5.5 4.68789 6.62003 3.56787 8.00004 3.56787H10.5001V8.56785H8.00004C6.62003 8.56785 5.5 7.44789 5.5 6.06789Z" fill="#F24E1E"/>
<path d="M10.4999 3.56787H13C14.38 3.56787 15.5 4.68789 15.5 6.06789C15.5 7.44789 14.38 8.56785 13 8.56785H10.4999V3.56787Z" fill="#FF7262"/>
<path d="M15.5 11.0679C15.5 12.4479 14.38 13.5679 13 13.5679C11.62 13.5679 10.4999 12.4479 10.4999 11.0679C10.4999 9.68789 11.62 8.56787 13 8.56787C14.38 8.56787 15.5 9.68789 15.5 11.0679Z" fill="#1ABCFE"/>
</g>
<defs>
<clipPath id="clip0_462_9072">
<rect width="15" height="15" fill="white" transform="translate(3 3.56787)"/>
</clipPath>
</defs>
</svg>
