<svg width="16" height="16" viewBox="0 0 16 16" fill="none" xmlns="http://www.w3.org/2000/svg">
<g clip-path="url(#clip0_364_2320)">
<path d="M4.77269 4.11039C4.77252 4.2091 4.79183 4.30688 4.82953 4.39811C4.86722 4.48934 4.92256 4.57223 4.99236 4.64203C5.06215 4.71183 5.14505 4.76716 5.23627 4.80485C5.3275 4.84255 5.42528 4.86187 5.52399 4.8617L10.0751 4.8617L3.57856 11.3582C3.43791 11.4989 3.35889 11.6897 3.35889 11.8886C3.35889 12.0875 3.43791 12.2782 3.57856 12.4189C3.71921 12.5596 3.90998 12.6386 4.10889 12.6386C4.3078 12.6386 4.49857 12.5596 4.63922 12.4189L11.1358 5.92236L11.1366 10.4744C11.1366 10.6736 11.2158 10.8647 11.3567 11.0056C11.4976 11.1465 11.6887 11.2257 11.8879 11.2257C12.0872 11.2257 12.2783 11.1465 12.4192 11.0056C12.5601 10.8647 12.6393 10.6736 12.6393 10.4744L12.6393 4.11039C12.6394 4.01168 12.6201 3.91391 12.5824 3.82268C12.5447 3.73145 12.4894 3.64856 12.4196 3.57876C12.3498 3.50896 12.2669 3.45363 12.1757 3.41593C12.0844 3.37824 11.9867 3.35892 11.8879 3.35909L5.52399 3.35909C5.42528 3.35892 5.3275 3.37824 5.23628 3.41593C5.14505 3.45363 5.06215 3.50896 4.99236 3.57876C4.92256 3.64856 4.86722 3.73145 4.82953 3.82268C4.79183 3.91391 4.77252 4.01168 4.77269 4.11039Z" fill="black"/>
</g>
<defs>
<clipPath id="clip0_364_2320">
<rect width="16" height="16" fill="white"/>
</clipPath>
</defs>
</svg>
