<svg width="24" height="25" viewBox="0 0 24 25" fill="none" xmlns="http://www.w3.org/2000/svg">
<g clip-path="url(#clip0_364_2959)">
<path d="M7.15903 6.55115C7.15877 6.69922 7.18775 6.84588 7.24429 6.98272C7.30083 7.11956 7.38384 7.2439 7.48853 7.3486C7.59323 7.4533 7.71757 7.5363 7.85441 7.59284C7.99126 7.64938 8.13792 7.67836 8.28598 7.6781L15.1127 7.6781L5.36784 17.4229C5.15686 17.6339 5.03834 17.92 5.03834 18.2184C5.03834 18.5168 5.15686 18.8029 5.36784 19.0139C5.57882 19.2249 5.86497 19.3434 6.16334 19.3434C6.46171 19.3434 6.74785 19.2249 6.95883 19.0139L16.7036 9.26909L16.705 16.0971C16.705 16.396 16.8237 16.6826 17.035 16.894C17.2464 17.1053 17.533 17.224 17.8319 17.224C18.1308 17.224 18.4175 17.1053 18.6288 16.894C18.8401 16.6826 18.9589 16.396 18.9589 16.0971L18.9589 6.55115C18.9591 6.40308 18.9302 6.25642 18.8736 6.11958C18.8171 5.98274 18.7341 5.8584 18.6294 5.7537C18.5247 5.649 18.4003 5.566 18.2635 5.50946C18.1266 5.45291 17.98 5.42394 17.8319 5.4242L8.28598 5.4242C8.13792 5.42394 7.99126 5.45292 7.85441 5.50946C7.71757 5.566 7.59323 5.649 7.48853 5.7537C7.38384 5.8584 7.30084 5.98274 7.24429 6.11958C7.18775 6.25642 7.15877 6.40308 7.15903 6.55115Z" fill="black"/>
</g>
<defs>
<clipPath id="clip0_364_2959">
<rect width="24" height="24" fill="white" transform="translate(0 0.386047)"/>
</clipPath>
</defs>
</svg>
