<svg width="12" height="13" viewBox="0 0 12 13" fill="none" xmlns="http://www.w3.org/2000/svg">
<path d="M11.5312 9.22656C11.5312 9.64844 11.1953 9.96875 10.8203 9.96875C10.4375 9.96875 10.1172 9.625 10.1172 9.25781V6.36719L10.2578 2.71875L8.96875 4.17969L1.21094 11.9297C1.07031 12.0781 0.898438 12.1406 0.71875 12.1406C0.328125 12.1406 -0.0078125 11.7891 -0.0078125 11.4141C-0.0078125 11.2422 0.0703125 11.0625 0.210938 10.9219L7.95312 3.16406L9.40625 1.89062L5.59375 2.01562H2.875C2.50781 2.01562 2.17188 1.69531 2.17188 1.32031C2.17188 0.945312 2.46875 0.609375 2.90625 0.609375H10.7656C11.2344 0.609375 11.5234 0.921875 11.5234 1.36719L11.5312 9.22656Z" fill="#FFB800"/>
</svg>
