<svg width="38" height="38" viewBox="0 0 38 38" fill="none" xmlns="http://www.w3.org/2000/svg">
<rect width="38" height="38" rx="10.8571" fill="#FFF9E9"/>
<g clip-path="url(#clip0_1220_6226)">
<path d="M14.4805 17.945V16.4634C14.4805 16.3757 14.4805 16.3407 14.5949 16.3407C15.5762 16.3407 16.3737 16.2825 16.7697 16.516C17.1666 16.7487 17.1832 17.0699 17.1897 17.1659C17.1971 17.2619 17.1934 17.3994 17.0088 17.7345C16.8242 18.0696 15.998 18.076 15.4017 18.076H14.6125C14.5155 18.076 14.4805 18.041 14.4805 17.945ZM17.1999 19.4976C17.2911 19.6143 17.3563 19.7493 17.3908 19.8934C17.4254 20.0376 17.4286 20.1874 17.4003 20.3329C17.3719 20.4783 17.3126 20.616 17.2265 20.7366C17.1403 20.8572 17.0292 20.9578 16.9008 21.0317C16.7119 21.111 16.5093 21.1527 16.3045 21.1545H14.6032C14.5155 21.1545 14.4805 21.1545 14.4805 21.041V19.2871C14.4805 19.1994 14.4805 19.1643 14.5949 19.1643H15.7257C16.4272 19.1643 16.8657 19.1034 17.1999 19.4976Z" fill="#FCAB00"/>
<path d="M23.3745 18.6852C23.3275 18.5743 23.2561 18.4754 23.1657 18.3958C23.0752 18.3162 22.968 18.258 22.852 18.2255C22.6201 18.1623 22.3775 18.149 22.1401 18.1863C21.9027 18.2237 21.676 18.311 21.4748 18.4425C21.2741 18.6448 21.1445 18.9069 21.1055 19.1892C21.1055 19.288 21.1055 19.3065 21.2228 19.3065H23.4105C23.5185 19.3065 23.5185 19.3065 23.5092 19.1708C23.4987 19.0012 23.4534 18.8357 23.3745 18.6852ZM23.3745 18.6852C23.3275 18.5743 23.2552 18.4754 23.1648 18.3958C23.0743 18.3162 22.968 18.258 22.852 18.2255C22.6201 18.1623 22.3766 18.149 22.1392 18.1863C21.9018 18.2237 21.676 18.311 21.4748 18.4425C21.2741 18.6448 21.1436 18.9069 21.1046 19.1892C21.1046 19.288 21.1046 19.3065 21.2218 19.3065H23.4105C23.5185 19.3065 23.5185 19.3065 23.5092 19.1708C23.4987 19.0012 23.4515 18.8357 23.3726 18.6852M24.4 10H13.6C12.6452 10 11.7295 10.3793 11.0544 11.0544C10.3793 11.7295 10 12.6452 10 13.6V24.4C10 25.3548 10.3793 26.2705 11.0544 26.9456C11.7295 27.6207 12.6452 28 13.6 28H24.4C25.3548 28 26.2705 27.6207 26.9456 26.9456C27.6207 26.2705 28 25.3548 28 24.4V13.6C28 12.6452 27.6207 11.7295 26.9456 11.0544C26.2705 10.3793 25.3548 10 24.4 10ZM20.872 15.7323C20.872 15.6612 20.872 15.6335 20.9532 15.6335H23.8692V16.3905C23.8692 16.3905 23.872 16.444 23.824 16.444H20.9985C20.872 16.444 20.872 16.444 20.872 16.3185V15.7323ZM18.172 22.348C17.0643 22.9508 15.2025 22.708 12.9972 22.708V15.2468H16.516C17.416 15.2468 18.4868 15.472 18.7748 16.4255C18.9243 16.842 18.9152 17.299 18.7492 17.7092C18.5832 18.1194 18.2719 18.454 17.8748 18.6492C18.2408 18.7847 18.5604 19.0222 18.7957 19.3336C19.031 19.645 19.1721 20.0173 19.2024 20.4065C19.2327 20.7956 19.1509 21.1852 18.9667 21.5293C18.7824 21.8734 18.5034 22.1575 18.1628 22.348H18.172ZM24.8772 20.224H21.2772C21.1785 20.224 21.088 20.2775 21.1055 20.404C21.2135 20.9348 21.4563 21.4932 22.0065 21.5745C22.297 21.6604 22.6079 21.6469 22.8898 21.536C23.1718 21.4251 23.4086 21.2233 23.5628 20.9625C23.5628 20.9625 23.608 20.908 23.6348 20.908H24.8052C24.8052 20.908 24.8772 20.908 24.8588 20.9708C24.7362 21.3207 24.5534 21.6465 24.3188 21.9335C24.0059 22.2322 23.6284 22.4547 23.2156 22.5839C22.8028 22.7131 22.3658 22.7455 21.9384 22.6785C21.5111 22.6116 21.1049 22.4471 20.7514 22.1979C20.3979 21.9486 20.1066 21.6213 19.9 21.2412C19.7723 20.988 19.6931 20.7131 19.6665 20.4308C19.5059 19.7215 19.6286 18.9775 20.0085 18.3573C20.3883 17.7372 20.9952 17.2898 21.7 17.1105C23.7428 16.6692 25.0388 18.0732 25.0388 20.0532C25.0418 20.0764 25.0395 20.0999 25.0319 20.122C25.0244 20.1441 25.0119 20.1642 24.9954 20.1807C24.9789 20.1972 24.9589 20.2097 24.9368 20.2172C24.9147 20.2247 24.8911 20.227 24.868 20.224H24.8772ZM22.8612 18.2255C22.6294 18.1625 22.3868 18.1493 22.1495 18.1868C21.9123 18.2237 21.7 18.2689 21.484 18.4425C21.268 18.6151 21.1535 18.9068 21.1148 19.1892C21.1148 19.288 21.1148 19.3065 21.232 19.3065H23.4105C23.5185 19.3065 23.5185 19.3065 23.5092 19.1708C23.4987 19.0012 23.4534 18.8357 23.3745 18.6852C23.3275 18.5743 23.2561 18.4754 23.1657 18.3958C23.0752 18.3162 22.968 18.258 22.852 18.2255H22.8612Z" fill="#FCAB00"/>
</g>
<defs>
<clipPath id="clip0_1220_6226">
<rect width="18" height="18" fill="white" transform="translate(10 10)"/>
</clipPath>
</defs>
</svg>
