<svg width="14" height="13" viewBox="0 0 14 13" fill="none" xmlns="http://www.w3.org/2000/svg">
<path d="M0.953125 12.4062C0.617188 12.0781 0.625 11.5 0.953125 11.1797L5.75781 6.36719L0.953125 1.5625C0.625 1.24219 0.617188 0.671875 0.953125 0.328125C1.28906 -0.0078125 1.85938 0 2.1875 0.328125L6.99219 5.13281L11.7969 0.328125C12.1328 0 12.6875 0 13.0312 0.335938C13.375 0.664062 13.3672 1.23438 13.0391 1.5625L8.23438 6.36719L13.0391 11.1797C13.3672 11.5078 13.3672 12.0703 13.0312 12.4062C12.6953 12.75 12.1328 12.7422 11.7969 12.4141L6.99219 7.60938L2.1875 12.4141C1.85938 12.7422 1.29688 12.7422 0.953125 12.4062Z" fill="#667085"/>
</svg>
