<svg width="14" height="16" viewBox="0 0 14 16" fill="none" xmlns="http://www.w3.org/2000/svg">
<path d="M6.91602 0.763672C7.26465 0.763672 7.55176 1.04395 7.55176 1.37891V8.24219L7.49707 9.26074L7.85938 8.82324L8.83691 7.78418C8.94629 7.66113 9.10352 7.59961 9.26074 7.59961C9.56836 7.59961 9.82812 7.8252 9.82812 8.13965C9.82812 8.30371 9.75977 8.42676 9.64355 8.54297L7.39453 10.71C7.2373 10.8672 7.08691 10.9219 6.91602 10.9219C6.75195 10.9219 6.60156 10.8672 6.44434 10.71L4.18848 8.54297C4.0791 8.42676 4.01074 8.30371 4.01074 8.13965C4.01074 7.8252 4.25684 7.59961 4.57129 7.59961C4.72852 7.59961 4.89258 7.66113 5.00195 7.78418L5.97949 8.82324L6.3418 9.26074L6.28711 8.24219V1.37891C6.28711 1.04395 6.57422 0.763672 6.91602 0.763672ZM2.98535 15.5566C1.50879 15.5566 0.743164 14.7979 0.743164 13.335V6.63574C0.743164 5.17285 1.50879 4.41406 2.98535 4.41406H4.99512V5.75391H3.06738C2.43164 5.75391 2.08301 6.08887 2.08301 6.75195V13.2188C2.08301 13.8818 2.43164 14.2168 3.06738 14.2168H10.7715C11.4004 14.2168 11.7559 13.8818 11.7559 13.2188V6.75195C11.7559 6.08887 11.4004 5.75391 10.7715 5.75391H8.83691V4.41406H10.8535C12.3301 4.41406 13.0957 5.17969 13.0957 6.63574V13.335C13.0957 14.791 12.3301 15.5566 10.8535 15.5566H2.98535Z" fill="#0B66C2"/>
</svg>
