<svg width="38" height="38" viewBox="0 0 38 38" fill="none" xmlns="http://www.w3.org/2000/svg">
<rect width="38" height="38" rx="10.8571" fill="#FFF9E9"/>
<g clip-path="url(#clip0_1220_6202)">
<path d="M18.5462 19.8069C18.2997 19.8069 18.0611 19.7035 17.8066 19.4809L9.84668 12.4354C10.2761 12.173 10.7691 12.0537 11.4212 12.0537H25.6712C26.3312 12.0537 26.8163 12.173 27.2457 12.4354L19.2857 19.4809C19.0312 19.7035 18.7927 19.8069 18.5462 19.8069ZM9.01172 24.6019C8.89244 24.2918 8.81292 23.9181 8.81292 23.4171V14.6301C8.81292 14.0894 8.90834 13.6759 9.00377 13.4771L14.9121 18.7095L9.01172 24.6019ZM28.0806 24.6019L22.1802 18.7095L28.0886 13.4771C28.184 13.6759 28.2794 14.0894 28.2794 14.6301V23.4171C28.2794 23.9181 28.1999 24.2918 28.0806 24.6019ZM11.2224 26.0015C10.6339 26.0015 10.1727 25.8663 9.85463 25.6675L15.93 19.5922L17.0194 20.5623C17.5124 20.9917 18.0134 21.2064 18.5462 21.2064C19.079 21.2064 19.5799 20.9917 20.073 20.5623L21.1624 19.5922L27.2377 25.6675C26.9196 25.8663 26.4584 26.0015 25.87 26.0015H11.2224Z" fill="#FCAB00"/>
</g>
<defs>
<clipPath id="clip0_1220_6202">
<rect x="8.14258" y="8.14282" width="21.7143" height="21.7143" rx="3.39286" fill="white"/>
</clipPath>
</defs>
</svg>
