<svg width="38" height="38" viewBox="0 0 38 38" fill="none" xmlns="http://www.w3.org/2000/svg">
<rect width="38" height="38" rx="10.8571" fill="#FFF9E9"/>
<g clip-path="url(#clip0_1220_6218)">
<path d="M25.8137 11H12.1793C11.5262 11 10.998 11.5156 10.998 12.1531V25.8438C10.998 26.4813 11.5262 27 12.1793 27H25.8137C26.4668 27 26.998 26.4813 26.998 25.8469V12.1531C26.998 11.5156 26.4668 11 25.8137 11ZM15.7449 24.6344H13.3699V16.9969H15.7449V24.6344ZM14.5574 15.9563C13.7949 15.9563 13.1793 15.3406 13.1793 14.5812C13.1793 13.8219 13.7949 13.2062 14.5574 13.2062C15.3168 13.2062 15.9324 13.8219 15.9324 14.5812C15.9324 15.3375 15.3168 15.9563 14.5574 15.9563ZM24.6324 24.6344H22.2605V20.9219C22.2605 20.0375 22.2449 18.8969 21.0262 18.8969C19.7918 18.8969 19.6043 19.8625 19.6043 20.8594V24.6344H17.2355V16.9969H19.5105V18.0406H19.5418C19.8574 17.4406 20.6324 16.8063 21.7855 16.8063C24.1887 16.8063 24.6324 18.3875 24.6324 20.4438V24.6344Z" fill="#FCAB00"/>
</g>
<defs>
<clipPath id="clip0_1220_6218">
<rect width="16" height="16" fill="white" transform="translate(10.998 11)"/>
</clipPath>
</defs>
</svg>
