<svg width="64" height="50" viewBox="0 0 64 50" fill="none" xmlns="http://www.w3.org/2000/svg">
<path d="M39.1232 12.8975C34.7601 11.7806 33.1494 14.5832 31.9072 18.722C30.6762 14.5029 27.0406 11.7008 23.8521 13.2167C20.6636 14.7327 18.1464 22.6315 22.1739 29.2538C25.049 33.9812 19.3211 38.4293 20.6636 43.5357C21.8763 48.1484 26.9074 49.4212 31.9072 49.3602C36.7923 49.3005 41.5354 48.0191 42.8152 43.5357C44.4094 37.9506 38.278 33.282 41.6405 28.8549C44.9129 24.5464 43.4864 14.0145 39.1232 12.8975Z" fill="white"/>
<path d="M28.6465 31.0135C31.1585 33.0429 32.7111 32.9711 35.6985 31.0135" stroke="black" stroke-width="0.744186" stroke-linecap="round"/>
<path d="M32.0059 32.5228L32.0059 39.2281" stroke="black" stroke-width="0.744186" stroke-linecap="round"/>
<path d="M26.6328 42.077C31.4055 44.9767 33.7322 44.6195 37.5466 42.077" stroke="black" stroke-width="0.744186" stroke-linecap="round"/>
<path d="M31.3754 3.60324C16.9356 4.35759 11.75 17.9221 15.5923 27.9937C14.4457 28.8372 13.7616 29.2493 11.8145 28.9157C8.22988 23.5295 8.08745 20.2506 11.3108 13.9126L14.0812 13.4936C18.7631 4.45418 22.1485 0.769374 31.3754 -0.000854492C41.7019 0.820106 45.516 4.10301 49.8449 13.4936L52.1956 13.9126C56.0854 19.7025 55.8593 22.9913 52.1956 28.9157C50.8917 29.2675 50.1186 29.1812 48.5856 27.9937C52.075 17.5257 45.8152 2.8489 31.3754 3.60324Z" fill="white"/>
<path d="M8.15234 13.0238C2.60209 16.4821 2.70115 28.2659 7.62759 30.4527" stroke="white" stroke-width="0.744186" stroke-linecap="round"/>
<path d="M3.24219 15.6208C-0.81451 18.1485 -0.74211 26.7613 2.85864 28.3597" stroke="white" stroke-width="0.372093" stroke-linecap="round"/>
<path d="M55.8477 13.0238C61.3979 16.4821 61.2989 28.2659 56.3724 30.4527" stroke="white" stroke-width="0.744186" stroke-linecap="round"/>
<path d="M60.7578 15.6208C64.8145 18.1485 64.7421 26.7613 61.1414 28.3597" stroke="white" stroke-width="0.372093" stroke-linecap="round"/>
<path d="M22.7998 20.0929L20.8379 21.8789C21.4462 24.1107 21.6507 25.3621 21.6227 27.5943L29.396 29.0231L30.2552 26.8799C31.04 24.7366 32.6096 25.0938 33.3943 26.8799L34.2332 29.0231C37.4942 28.2146 38.8356 27.9957 42.0269 27.5943C41.8972 25.4035 42.0002 24.1511 42.4193 21.8789L40.8497 20.0929C33.7913 20.7853 29.8575 20.7959 22.7998 20.0929Z" fill="black"/>
</svg>
