<svg width="36" height="52" viewBox="0 0 36 52" fill="none" xmlns="http://www.w3.org/2000/svg">
<path d="M4.94952 45.8214C0.522019 41.2997 0 33.9544 0 33.9544C0.0525655 33.7093 8.16164 34.7773 12.1805 40.0754C16.1993 45.3736 16.2599 51.0539 16.2599 51.0539C16.2599 51.0539 9.37702 50.3431 4.94952 45.8214Z" fill="#EA3A60"/>
<path d="M31.0505 45.8336C35.478 41.3119 36 33.9666 36 33.9666C35.9474 33.7215 27.8384 34.7895 23.8195 40.0876C19.8007 45.3858 19.7401 51.0661 19.7401 51.0661C19.7401 51.0661 26.623 50.3553 31.0505 45.8336Z" fill="#EA3A60"/>
<path d="M18.1779 0.0800781C25.4916 9.67401 34.1842 22.8643 34.2618 26.1816C34.339 29.493 32.2389 30.1286 32.2316 30.1309C32.18 30.1546 20.7168 35.4296 18.1759 40.5371V40.4541C15.6296 35.3455 4.16282 30.0714 4.12219 30.0527C4.10147 30.0464 2.01511 29.4041 2.09191 26.1035C2.16919 22.7863 10.8636 9.5943 18.1779 0V0.0800781ZM18.1759 21.9961C15.2503 21.9961 12.8782 24.4184 12.878 27.4062C12.878 30.3942 15.2502 32.8164 18.1759 32.8164C21.1015 32.8163 23.4728 30.3941 23.4728 27.4062C23.4726 24.4185 21.1014 21.9962 18.1759 21.9961Z" fill="#EA3A60"/>
</svg>
