<svg width="38" height="38" viewBox="0 0 38 38" fill="none" xmlns="http://www.w3.org/2000/svg">
<rect width="38" height="38" rx="10.8571" fill="#FFF9E9"/>
<path d="M14.8594 22.6484C12.5391 20.3281 10.7969 17.5859 10.7969 15.3281C10.7969 14.3281 11.1484 13.4375 11.8047 12.7969C12.2656 12.3594 12.9062 11.9453 13.4375 11.9453C13.8672 11.9453 14.1797 12.2656 14.5547 12.7969L15.8828 14.6562C16.1875 15.0781 16.2891 15.4062 16.2891 15.7188C16.2891 15.9922 16.2266 16.1797 16.0312 16.5312L15.2891 17.8047C15.2266 17.9141 15.1719 18.0078 15.1719 18.1094C15.1719 18.2422 15.2188 18.3594 15.2578 18.4375C15.5625 19.0469 16.1484 19.8125 16.8984 20.5625C17.6484 21.3203 18.5 21.9844 19.1094 22.2656C19.2578 22.3281 19.3594 22.3672 19.5078 22.3672C19.6172 22.3672 19.6875 22.3438 19.8359 22.2656L21.1016 21.5703C21.5156 21.3438 21.7188 21.2969 21.9688 21.2969C22.25 21.2969 22.4688 21.3594 22.9531 21.7031L24.8906 23.0938C25.4141 23.4609 25.625 23.7656 25.625 24.1016C25.625 24.5312 25.4062 25.0234 24.8281 25.6719C24.2266 26.3516 23.3047 26.7734 22.2422 26.7734C19.9922 26.7734 17.2031 24.9922 14.8594 22.6484Z" fill="#FCAB00"/>
</svg>
