<svg width="38" height="38" viewBox="0 0 38 38" fill="none" xmlns="http://www.w3.org/2000/svg">
<rect width="38" height="38" rx="10.8571" fill="#FFF9E9"/>
<path d="M14.6122 27.8707C12.9104 27.8707 12.0278 26.9801 12.0278 25.2624V13.2628C12.0278 11.5532 12.9104 10.6546 14.6122 10.6546H18.2462V16.6663C18.2462 17.6603 18.7234 18.1454 19.7174 18.1454H25.6655V25.2624C25.6655 26.9721 24.7828 27.8707 23.0811 27.8707H14.6122ZM19.8605 16.9844C19.5583 16.9844 19.3993 16.8333 19.3993 16.5311V10.7341C19.7651 10.7818 20.1229 11.0522 20.5126 11.4498L24.8623 15.8631C25.2679 16.2846 25.5303 16.6265 25.578 16.9844H19.8605Z" fill="#FCAB00"/>
</svg>
