<svg width="60" height="61" viewBox="0 0 60 61" fill="none" xmlns="http://www.w3.org/2000/svg">
<rect x="0.5" y="1.06641" width="59" height="59" rx="15.5" fill="#202020" stroke="#292929"/>
<g clip-path="url(#clip0_598_744)">
<path d="M40.2283 18.5664H19.7717C19.3018 18.5664 18.8512 18.7531 18.5189 19.0853C18.1867 19.4176 18 19.8682 18 20.3381V40.7947C18 41.2646 18.1867 41.7152 18.5189 42.0475C18.8512 42.3798 19.3018 42.5664 19.7717 42.5664H40.2283C40.6982 42.5664 41.1488 42.3798 41.4811 42.0475C41.8133 41.7152 42 41.2646 42 40.7947V20.3381C42 19.8682 41.8133 19.4176 41.4811 19.0853C41.1488 18.7531 40.6982 18.5664 40.2283 18.5664ZM25.1533 39.0114H21.545V27.5497H25.1533V39.0114ZM23.3467 25.9614C22.9374 25.9591 22.5379 25.8356 22.1987 25.6065C21.8596 25.3774 21.5958 25.0529 21.4409 24.6741C21.2859 24.2953 21.2466 23.879 21.328 23.4779C21.4094 23.0767 21.6078 22.7087 21.8982 22.4202C22.1885 22.1317 22.5578 21.9357 22.9595 21.8569C23.3611 21.7781 23.7771 21.82 24.155 21.9774C24.5328 22.1348 24.8555 22.4006 25.0825 22.7412C25.3094 23.0819 25.4303 23.4821 25.43 23.8914C25.4339 24.1654 25.3825 24.4374 25.279 24.6912C25.1755 24.945 25.022 25.1753 24.8276 25.3685C24.6332 25.5616 24.4018 25.7137 24.1474 25.8156C23.893 25.9174 23.6207 25.967 23.3467 25.9614ZM38.4533 39.0214H34.8467V32.7597C34.8467 30.9131 34.0617 30.3431 33.0483 30.3431C31.9783 30.3431 30.9283 31.1497 30.9283 32.8064V39.0214H27.32V27.5581H30.79V29.1464H30.8367C31.185 28.4414 32.405 27.2364 34.2667 27.2364C36.28 27.2364 38.455 28.4314 38.455 31.9314L38.4533 39.0214Z" fill="#0A66C2"/>
</g>
<g clip-path="url(#clip1_598_744)">
<rect x="18" y="18.5664" width="24" height="24" rx="12" fill="#0057FF"/>
<path d="M27.2162 25.5396C27.678 25.5396 28.1043 25.5751 28.4951 25.6816C28.8859 25.7527 29.2056 25.8948 29.4898 26.0724C29.774 26.25 29.9871 26.4987 30.1292 26.8184C30.2713 27.1382 30.3424 27.5289 30.3424 27.9552C30.3424 28.4526 30.2358 28.8789 29.9871 29.1986C29.774 29.5183 29.4187 29.8025 28.9924 30.0156C29.5964 30.1933 30.0582 30.513 30.3424 30.9393C30.6266 31.3656 30.8042 31.8985 30.8042 32.5024C30.8042 32.9997 30.6976 33.426 30.52 33.7813C30.3424 34.1365 30.0582 34.4562 29.7385 34.6694C29.4187 34.8825 29.028 35.0601 28.6017 35.1667C28.1754 35.2733 27.7491 35.3443 27.3228 35.3443H22.5625V25.5396H27.2162ZM26.932 29.5183C27.3228 29.5183 27.6425 29.4117 27.8912 29.2341C28.1399 29.0565 28.2464 28.7368 28.2464 28.346C28.2464 28.1328 28.2109 27.9197 28.1399 27.7776C28.0688 27.6355 27.9622 27.5289 27.8201 27.4224C27.678 27.3513 27.5359 27.2803 27.3583 27.2447C27.1807 27.2092 27.0031 27.2092 26.7899 27.2092H24.7295V29.5183H26.932ZM27.0386 33.7102C27.2517 33.7102 27.4649 33.6747 27.6425 33.6392C27.8201 33.6036 27.9978 33.5326 28.1399 33.426C28.282 33.3194 28.3885 33.2129 28.4951 33.0352C28.5662 32.8576 28.6372 32.6445 28.6372 32.3958C28.6372 31.8985 28.4951 31.5432 28.2109 31.2945C27.9267 31.0814 27.5359 30.9748 27.0741 30.9748H24.7295V33.7102H27.0386ZM33.8948 33.6747C34.179 33.9589 34.6053 34.101 35.1737 34.101C35.5645 34.101 35.9197 33.9944 36.2039 33.8168C36.4881 33.6036 36.6658 33.3905 36.7368 33.1773H38.4775C38.1933 34.0299 37.767 34.6338 37.1986 35.0246C36.6302 35.3799 35.9553 35.593 35.1382 35.593C34.5698 35.593 34.0725 35.4864 33.6106 35.3088C33.1488 35.1312 32.7936 34.8825 32.4739 34.5273C32.1541 34.2075 31.9055 33.8168 31.7634 33.355C31.5857 32.8931 31.5147 32.3958 31.5147 31.8274C31.5147 31.2945 31.5857 30.7972 31.7634 30.3354C31.941 29.8735 32.1897 29.4828 32.5094 29.1275C32.8291 28.8078 33.2199 28.5236 33.6462 28.346C34.108 28.1684 34.5698 28.0618 35.1382 28.0618C35.7421 28.0618 36.275 28.1684 36.7368 28.417C37.1986 28.6657 37.5539 28.9499 37.8381 29.3762C38.1223 29.767 38.3354 30.2288 38.4775 30.7261C38.5486 31.2235 38.5841 31.7208 38.5486 32.2892H33.3975C33.3975 32.8576 33.6106 33.3905 33.8948 33.6747ZM36.1329 29.9446C35.8842 29.6959 35.4934 29.5538 35.0316 29.5538C34.7119 29.5538 34.4632 29.6249 34.2501 29.7315C34.0369 29.838 33.8948 29.9801 33.7527 30.1222C33.6106 30.2643 33.5396 30.4419 33.5041 30.6196C33.4685 30.7972 33.433 30.9393 33.433 31.0814H36.6302C36.5592 30.5485 36.3816 30.1933 36.1329 29.9446ZM33.0067 26.2145H36.9855V27.1737H33.0067V26.2145Z" fill="white"/>
</g>
<defs>
<clipPath id="clip0_598_744">
<rect width="24" height="24" fill="white" transform="translate(18 18.5664)"/>
</clipPath>
<clipPath id="clip1_598_744">
<rect width="24" height="24" fill="white" transform="translate(18 18.5664)"/>
</clipPath>
</defs>
</svg>
