<svg width="183" height="100" viewBox="0 0 183 100" fill="none" xmlns="http://www.w3.org/2000/svg">
<rect width="183" height="100" fill="#FFFDF8"/>
<path d="M35.0551 56.5776C34.2786 57.5121 33.5415 58.0912 32.2649 58.0912C30.5803 58.0912 29.3563 56.7092 29.3563 54.8009V54.7614C29.3563 52.9057 30.6066 51.5106 32.2649 51.5106C33.3178 51.5106 34.1601 51.9581 34.9629 52.9715L35.134 53.1821L38.3454 50.6946L38.1874 50.4709C36.8055 48.5494 34.8182 47.5754 32.3044 47.5754C30.2908 47.5754 28.435 48.3125 27.0795 49.6681C25.737 51.0105 25 52.8267 25 54.7877V54.8272C25 56.8145 25.737 58.6308 27.0926 59.96C28.4219 61.2761 30.225 62 32.1596 62C33.6074 62 34.8182 61.7104 35.8842 61.105C36.7792 60.6049 37.5688 59.8679 38.2927 58.8677L38.4506 58.6439L35.2262 56.3539L35.0551 56.5776Z" fill="black"/>
<path d="M47.8247 52.3123L51.6809 61.762H55.3528L49.404 47.7717H46.3375L40.3887 61.762H43.9816L47.8247 52.3123Z" fill="black"/>
<path d="M68.7471 49.1565C68.2864 48.7353 67.7073 48.4195 67.0493 48.1957C66.3912 47.972 65.6542 47.8667 64.8514 47.8667H59.3105V61.7516H62.1928V57.4611H64.575C65.3383 57.4611 66.0622 57.3558 66.7334 57.1584C67.4178 56.9478 68.01 56.6451 68.5233 56.2503C69.0366 55.8423 69.4446 55.329 69.7473 54.7236C70.05 54.1182 70.1948 53.4075 70.1948 52.6178C70.1948 51.894 70.0632 51.2359 69.8131 50.6569C69.563 50.0909 69.2077 49.5776 68.7471 49.1565ZM62.1928 50.5384H64.6539C65.4699 50.5384 66.1148 50.7227 66.5886 51.078C67.0493 51.4333 67.2598 51.9466 67.2598 52.6705C67.2598 53.3154 67.0361 53.8155 66.5886 54.2103C66.128 54.6052 65.4699 54.8026 64.6539 54.8026H62.1928V50.5384Z" fill="black"/>
<path d="M73.7637 49.8145H78.2384V61.7648H80.2916V49.8145H84.7663V47.8667H73.7637V49.8145Z" fill="black"/>
<path d="M99.3878 55.9454C99.3878 56.7088 99.2825 57.3932 99.0851 57.9722C98.8877 58.5382 98.6113 59.0251 98.2559 59.3936C97.9006 59.7621 97.4663 60.0517 96.9662 60.236C96.4529 60.4202 95.8738 60.5255 95.2289 60.5255C93.8996 60.5255 92.8467 60.1175 92.1097 59.3278C91.3727 58.525 90.991 57.3537 90.991 55.8533V47.8777H89.4512V55.9454C89.4512 56.9194 89.5959 57.7748 89.8723 58.525C90.1487 59.2752 90.5567 59.9069 91.07 60.4202C91.5833 60.9335 92.2018 61.3283 92.8994 61.5915C93.5969 61.8548 94.3734 61.9864 95.2026 61.9864C96.0449 61.9864 96.8214 61.8548 97.5189 61.5915C98.2165 61.3283 98.835 60.9203 99.3483 60.407C99.8616 59.8806 100.256 59.2357 100.533 58.4724C100.809 57.709 100.954 56.8272 100.954 55.8533V47.904H99.4141V55.9454H99.3878Z" fill="black"/>
<path d="M115.008 55.6317C115.508 55.4212 115.955 55.1448 116.324 54.8026C116.705 54.4604 116.995 54.0524 117.205 53.5786C117.416 53.1048 117.521 52.5652 117.521 51.973V51.9335C117.521 51.3281 117.403 50.7753 117.153 50.2752C116.903 49.7751 116.561 49.3407 116.113 48.9854C115.679 48.63 115.139 48.3537 114.521 48.1562C113.915 47.9588 113.218 47.8667 112.481 47.8667H106.598V61.7516H108.137V56.224H112.086L116.337 61.7516H118.298L113.836 55.9739C114.271 55.9081 114.652 55.7897 115.008 55.6317ZM108.164 49.3276H112.441C113.586 49.3276 114.481 49.5776 115.1 50.0514C115.705 50.5252 115.995 51.157 115.995 51.973V52.0124C115.995 52.4468 115.903 52.8416 115.731 53.1706C115.56 53.5128 115.31 53.8023 114.994 54.0392C114.679 54.2761 114.297 54.4604 113.849 54.592C113.402 54.7236 112.902 54.7894 112.375 54.7894H108.151V49.3276H108.164Z" fill="black"/>
<path d="M123.868 55.2501H131.949V54.3156H123.868V48.8143H132.765V47.8667H122.895V61.7648H132.857V60.8304H123.868V55.2501Z" fill="black"/>
<path d="M147.845 49.8672C146.503 48.5774 144.621 47.8667 142.542 47.8667H137.975V61.7648H142.542C144.621 61.7648 146.503 61.0541 147.845 59.7643C149.175 58.5009 149.899 56.7373 149.899 54.8289V54.7894C149.912 52.8811 149.175 51.1307 147.845 49.8672ZM142.568 60.8304H138.962V48.8143H142.528C146.187 48.8143 148.938 51.3939 148.938 54.8289V54.8684C148.938 58.3166 146.253 60.8304 142.568 60.8304Z" fill="black"/>
<path d="M47.86 56.4858C47.86 56.4858 47.86 58.6837 45.6621 58.6837C47.86 58.6837 47.86 60.8816 47.86 60.8816C47.86 60.8816 47.86 58.6837 50.0579 58.6837C47.86 58.6837 47.86 56.4858 47.86 56.4858Z" fill="black"/>
<path d="M153.094 38C153.094 38 153.094 44.4865 146.607 44.4865C153.094 44.4865 153.094 50.973 153.094 50.973C153.094 50.973 153.094 44.4865 159.58 44.4865C153.094 44.4865 153.094 38 153.094 38Z" fill="black"/>
</svg>
