<svg width="56" height="57" viewBox="0 0 56 57" fill="none" xmlns="http://www.w3.org/2000/svg">
<rect y="0.105713" width="56" height="56" rx="10" fill="#FFF9E9"/>
<g clip-path="url(#clip0_1133_2313)">
<path d="M21.3691 42.0879C18.6758 42.0879 17.2949 40.707 17.2949 37.9727V18.3945C17.2949 15.6738 18.6758 14.2793 21.3691 14.2793H35.123C37.8301 14.2793 39.1973 15.6602 39.1973 18.3945V32.3535C38.6094 31.5195 37.8438 30.8223 36.9551 30.3438V18.4629C36.9551 17.2051 36.2441 16.5078 34.9727 16.5078H21.5195C20.207 16.5078 19.5371 17.2188 19.5371 18.4629V37.9043C19.5371 39.1484 20.207 39.8594 21.5195 39.8594H27.4941C27.9863 40.748 28.6699 41.5137 29.5176 42.0879H21.3691ZM23.4062 21.7715C22.9277 21.7715 22.5859 21.416 22.5859 20.9648C22.5859 20.5137 22.9277 20.1719 23.4062 20.1719H33.0996C33.5645 20.1719 33.9062 20.5137 33.9062 20.9648C33.9062 21.416 33.5645 21.7715 33.0996 21.7715H23.4062ZM23.4062 26.2559C22.9277 26.2559 22.5859 25.9004 22.5859 25.4355C22.5859 24.998 22.9277 24.6562 23.4062 24.6562H33.0996C33.5645 24.6562 33.9062 24.998 33.9062 25.4355C33.9062 25.9004 33.5645 26.2559 33.0996 26.2559H23.4062ZM33.3867 41.5C30.5293 41.5 28.1641 39.1348 28.1641 36.25C28.1641 33.3926 30.5293 31.0273 33.3867 31.0273C36.2578 31.0273 38.623 33.3926 38.623 36.25C38.623 37.3164 38.3086 38.3008 37.7617 39.1348L40.8926 42.2793C41.1113 42.498 41.248 42.7852 41.248 43.0859C41.248 43.7422 40.7969 44.2207 40.168 44.2207C39.7988 44.2207 39.5117 44.084 39.252 43.8105L36.1348 40.707C35.3281 41.2129 34.3984 41.5 33.3867 41.5ZM33.4004 39.709C35.2734 39.709 36.832 38.1504 36.832 36.25C36.832 34.377 35.2734 32.8184 33.4004 32.8184C31.5137 32.8184 29.9551 34.377 29.9551 36.25C29.9551 38.1504 31.5137 39.709 33.4004 39.709Z" fill="#FFB800"/>
</g>
<defs>
<clipPath id="clip0_1133_2313">
<rect x="12" y="12.1057" width="32" height="32" rx="5" fill="white"/>
</clipPath>
</defs>
</svg>
