<svg width="56" height="57" viewBox="0 0 56 57" fill="none" xmlns="http://www.w3.org/2000/svg">
<rect y="0.860352" width="56" height="56" rx="16" fill="#FFF9E9"/>
<path d="M27.25 40.527V40.2774L27.0004 40.277C24.7297 40.2737 22.7502 40.2471 21.1582 40.0419C19.5567 39.8354 18.4048 39.454 17.7389 38.7881C17.012 38.0613 16.6346 37.1038 16.443 35.6792C16.2505 34.2473 16.25 32.3816 16.25 29.8603L16.25 27.1937C16.25 24.6725 16.2505 22.8067 16.443 21.3749C16.6346 19.9503 17.012 18.9927 17.7389 18.2659C18.4048 17.6 19.5567 17.2186 21.1582 17.0122C22.7502 16.8069 24.7297 16.7803 27.0004 16.777L27.25 16.7767V16.527C27.25 16.1128 27.5858 15.777 28 15.777C28.4142 15.777 28.75 16.1128 28.75 16.527L28.75 40.527C28.75 40.9412 28.4142 41.277 28 41.277C27.5858 41.277 27.25 40.9412 27.25 40.527ZM30.0378 40.527C30.0378 40.1128 30.3735 39.777 30.7878 39.777H31.9999C32.5812 39.777 33.1137 39.777 33.6053 39.7728C34.0195 39.7692 34.3582 40.1021 34.3617 40.5163C34.3653 40.9305 34.0324 41.2691 33.6182 41.2727C33.1197 41.277 32.5814 41.277 32.0028 41.277H30.7878C30.3735 41.277 30.0378 40.9412 30.0378 40.527ZM36.7335 16.674L36.5001 16.6015L36.7335 16.674C36.8565 16.2785 37.2768 16.0575 37.6723 16.1804C38.3272 16.3839 38.8856 16.6952 39.3586 17.1683C39.8317 17.6413 40.143 18.1997 40.3465 18.8546C40.4694 19.2501 40.2484 19.6704 39.8529 19.7934C39.4573 19.9163 39.037 19.6953 38.9141 19.2997C38.7709 18.8391 38.5729 18.5039 38.298 18.2289C38.023 17.954 37.6878 17.756 37.2271 17.6128C36.8316 17.4899 36.6106 17.0696 36.7335 16.674ZM30.0378 16.527C30.0378 16.1128 30.3735 15.777 30.7878 15.777L32.0029 15.777C32.5815 15.777 33.1198 15.777 33.6182 15.7813C34.0324 15.7849 34.3653 16.1236 34.3617 16.5378C34.3582 16.952 34.0195 17.2848 33.6053 17.2813C33.1137 17.277 32.5812 17.277 31.9999 17.277H30.7878C30.3735 17.277 30.0378 16.9412 30.0378 16.527ZM36.7335 40.38C36.6106 39.9845 36.8316 39.5642 37.2271 39.4412C37.6878 39.2981 38.023 39.1001 38.298 38.8251C38.5729 38.5502 38.7709 38.215 38.9141 37.7543C39.037 37.3587 39.4573 37.1377 39.8529 37.2607C40.2484 37.3836 40.4694 37.8039 40.3465 38.1995C40.143 38.8543 39.8317 39.4127 39.3586 39.8858C38.8856 40.3589 38.3272 40.6701 37.6723 40.8736C37.2768 40.9966 36.8565 40.7756 36.7335 40.38ZM39.9891 34.8889C39.5749 34.8853 39.2421 34.5466 39.2456 34.1324C39.2499 33.6408 39.2499 33.1084 39.2499 32.527V30.7088C39.2499 30.2946 39.5857 29.9588 39.9999 29.9588C40.4141 29.9588 40.7499 30.2946 40.7499 30.7088V32.5301C40.7499 33.1087 40.7499 33.6469 40.7456 34.1454C40.742 34.5596 40.4033 34.8924 39.9891 34.8889ZM39.9891 22.1652C40.4033 22.1616 40.742 22.4945 40.7456 22.9087C40.7499 23.4071 40.7499 23.9454 40.7499 24.524V26.3452C40.7499 26.7594 40.4141 27.0952 39.9999 27.0952C39.5857 27.0952 39.2499 26.7594 39.2499 26.3452V24.527C39.2499 23.9457 39.2499 23.4132 39.2456 22.9216C39.2421 22.5074 39.5749 22.1687 39.9891 22.1652Z" fill="#FFB800" stroke="#FFB800" stroke-width="0.5"/>
</svg>
