<svg width="56" height="57" viewBox="0 0 56 57" fill="none" xmlns="http://www.w3.org/2000/svg">
<rect y="0.105713" width="56" height="56" rx="10" fill="#FFF9E9"/>
<path d="M16.0798 13.7126H31.5679C33.3196 13.7126 34.8673 14.0963 36.2111 14.8636C37.5789 15.6063 38.6467 16.6336 39.4145 17.9456C40.1824 19.2576 40.5664 20.78 40.5664 22.5128C40.5664 24.5427 40.0145 26.3002 38.9106 27.7856C37.8068 29.2461 36.3431 30.2486 34.5194 30.7932L40.7103 41.0045C41.0223 41.4996 41.0823 41.908 40.8903 42.2298C40.7223 42.5517 40.3624 42.7126 39.8105 42.7126C39.5465 42.7126 39.3425 42.663 39.1986 42.564C39.0786 42.4402 38.9586 42.2917 38.8386 42.1185L32.2158 31.2017H24.6931C24.0967 31.2017 23.6132 30.703 23.6132 30.0877C23.6132 29.4725 24.0967 28.9737 24.6931 28.9737H31.5679C32.9117 28.9737 34.0875 28.7014 35.0953 28.1569C36.1271 27.5875 36.931 26.8201 37.5069 25.8547C38.1068 24.8893 38.4067 23.7753 38.4067 22.5128C38.4067 21.2256 38.1068 20.0869 37.5069 19.0967C36.931 18.1065 36.1271 17.3391 35.0953 16.7945C34.0875 16.2251 32.9117 15.9405 31.5679 15.9405H16.0798C15.7918 15.9405 15.5399 15.8291 15.3239 15.6063C15.108 15.3835 15 15.1236 15 14.8265C15 14.5047 15.108 14.2324 15.3239 14.0096C15.5399 13.8116 15.7918 13.7126 16.0798 13.7126Z" fill="#FFB800"/>
</svg>
