<svg width="56" height="57" viewBox="0 0 56 57" fill="none" xmlns="http://www.w3.org/2000/svg">
<rect y="0.238396" width="56" height="56" rx="16" fill="#FFF9E9"/>
<path d="M17.5706 19.7374L19.499 17.809C20.4131 16.8949 21.0812 16.2276 21.6605 15.7856C22.234 15.348 22.6909 15.1551 23.179 15.1551C23.6672 15.1551 24.1241 15.348 24.6976 15.7856C25.2389 16.1986 25.8577 16.8083 26.6822 17.6322L23.6451 20.6694L17.3939 26.9206C16.57 26.0961 15.9602 25.4772 15.5472 24.936C15.1097 24.3625 14.9167 23.9056 14.9167 23.4174C14.9167 22.9292 15.1097 22.4723 15.5472 21.8988C15.9892 21.3196 16.6566 20.6514 17.5706 19.7374L17.5706 19.7374ZM38.4294 36.7394L36.501 38.6678C35.587 39.5818 34.9188 40.2492 34.3396 40.6912C33.7661 41.1287 33.3092 41.3217 32.821 41.3217C32.3328 41.3217 31.8759 41.1287 31.3024 40.6912C30.7612 40.2782 30.1423 39.6685 29.3178 38.8445L35.569 32.5934L38.6062 29.5562C39.4301 30.3807 40.0398 30.9996 40.4528 31.5408C40.8904 32.1143 41.0834 32.5712 41.0834 33.0594C41.0834 33.5476 40.8904 34.0045 40.4528 34.5779C40.0108 35.1572 39.3435 35.8253 38.4294 36.7394Z" fill="#FFB800" stroke="#FFB800" stroke-width="0.5"/>
<path d="M36.6243 26.6756L27.0234 36.2765C26.2497 37.0502 25.8772 37.4221 25.4678 37.7414C24.9817 38.1206 24.4557 38.4457 23.8991 38.7109C23.4305 38.9343 22.9312 39.1011 21.8932 39.4471L16.4488 41.262C16.0305 41.4014 15.5694 41.2925 15.2576 40.9808C14.9459 40.669 14.837 40.2079 14.9765 39.7897L16.7913 34.3452C17.1373 33.3072 17.3041 32.8079 17.5275 32.3393C17.7927 31.7828 18.1178 31.2567 18.497 30.7706L18.2999 30.6168L18.497 30.7706C18.8163 30.3613 19.1882 29.9888 19.9618 29.2151L19.9618 29.2151L19.9629 29.2141L19.9638 29.2131L29.563 19.6139C30.1418 20.9049 31.0445 22.3844 32.4494 23.7894C33.8542 25.1941 35.3334 26.0968 36.6243 26.6756ZM39.6209 16.6175C41.5708 18.5675 41.5708 21.729 39.6209 23.679L38.5478 24.7521C37.3263 24.3282 35.7236 23.528 34.2172 22.0216C32.7106 20.515 31.9104 18.912 31.4865 17.6904L32.5594 16.6175C34.5094 14.6676 37.6709 14.6676 39.6209 16.6175Z" fill="#FFB800" stroke="#FFB800" stroke-width="0.5"/>
</svg>
