<svg width="60" height="61" viewBox="0 0 60 61" fill="none" xmlns="http://www.w3.org/2000/svg">
<rect x="0.5" y="1.06641" width="59" height="59" rx="15.5" fill="#202020" stroke="#292929"/>
<path opacity="0.3" d="M43.4991 19.5674H16.501L17.501 41.3159H42.4991L43.4991 19.5674Z" fill="white"/>
<path opacity="0.3" d="M43.4991 19.5674H16.501L28.9373 28.8475H31.2498L43.4991 19.5674Z" fill="white"/>
<path opacity="0.1" d="M18.75 41.3164L30 31.1914L41.25 41.3164H18.75Z" fill="white"/>
<path fill-rule="evenodd" clip-rule="evenodd" d="M18.7507 21.4425C18.7507 20.4076 17.9123 19.5676 16.8758 19.5676C15.8409 19.5676 15.001 20.4076 15.001 21.4425C15.001 25.4352 15.001 34.7631 15.001 39.0663C15.001 40.3097 16.0089 41.3161 17.2508 41.3161C18.0488 41.3161 18.7507 41.3161 18.7507 41.3161C18.7507 41.3161 18.7507 26.7206 18.7507 21.4425Z" fill="white"/>
<path fill-rule="evenodd" clip-rule="evenodd" d="M41.249 21.4423C41.249 20.4073 42.089 19.5674 43.1239 19.5674C43.1254 19.5674 43.1269 19.5674 43.1269 19.5674C44.1618 19.5674 44.9988 20.4058 44.9988 21.4393C44.9988 25.4305 44.9988 34.7613 44.9988 39.066C44.9988 40.3094 43.9923 41.3159 42.7489 41.3159C41.9525 41.3159 41.249 41.3159 41.249 41.3159C41.249 41.3159 41.249 26.7204 41.249 21.4423Z" fill="white"/>
<path fill-rule="evenodd" clip-rule="evenodd" d="M15.937 23.0652C15.5065 22.8162 15.193 22.4083 15.0641 21.9283C14.9351 21.4483 15.0026 20.9384 15.2515 20.5079C15.2515 20.5079 15.253 20.5064 15.253 20.5049C15.502 20.0744 15.9115 19.7609 16.3915 19.632C16.8714 19.503 17.3829 19.5705 17.8134 19.8194L30 26.8554L42.1896 19.8179C42.6201 19.569 43.1301 19.5015 43.61 19.6305C44.09 19.7594 44.498 20.0729 44.747 20.5034L44.7485 20.5049C44.9974 20.9354 45.0649 21.4483 44.9359 21.9283C44.807 22.4083 44.492 22.8177 44.0615 23.0667L33.7497 29.0198L30 31.1856L26.2503 29.0198L15.937 23.0652Z" fill="white"/>
</svg>
