<svg width="183" height="100" viewBox="0 0 183 100" fill="none" xmlns="http://www.w3.org/2000/svg">
<rect width="183" height="100" fill="#FFFDF8"/>
<g clip-path="url(#clip0_1133_1905)">
<path d="M47.7882 52.2803L48.1627 52.5933L48.9919 53.2851C49.1611 53.4268 49.3304 53.5685 49.4996 53.7103L49.6942 53.8732C49.9692 54.1037 50.0327 54.4189 49.8635 54.7151C49.7302 54.952 49.5948 55.191 49.4573 55.428C49.1463 55.9695 48.8354 56.5068 48.5371 57.023C48.499 57.0886 44.6955 63.6633 44.2555 64.4312C43.4178 65.895 43.6357 67.6952 44.7992 68.9116C44.9621 69.0808 45.1398 69.2205 45.3111 69.3558C45.383 69.413 45.4571 69.4722 45.5311 69.5314L45.969 69.8974L49.0723 64.5644C49.0956 64.5221 50.496 62.1254 51.8096 59.8703L51.8202 59.8534C51.8477 59.8132 51.8689 59.7794 51.89 59.7455L52.5373 58.6328C53.0239 57.7972 53.5083 56.9595 53.9991 56.1261C54.3418 55.5443 54.5237 54.9774 54.5597 54.3957C54.6337 53.1793 54.2254 52.1343 53.3793 51.3749C52.3977 50.4927 51.4014 49.6085 50.4156 48.7348C50.2929 48.6269 50.1702 48.5169 50.0496 48.409C49.9269 48.299 49.8042 48.1933 49.6815 48.0833C49.4425 47.8717 49.2013 47.6602 48.9644 47.4486C48.609 47.1335 48.2515 46.8183 47.8961 46.5031C47.8009 46.4185 47.7057 46.3359 47.6106 46.2513C47.5831 46.2259 47.5556 46.2027 47.5281 46.1773C47.4181 46.08 47.3102 45.9848 47.2023 45.8875C47.1896 45.8748 47.1748 45.8642 47.1621 45.8515C47.1536 45.8431 47.143 45.8346 47.1346 45.8261L45.7976 44.6394C45.0911 44.0111 44.3824 43.3828 43.6759 42.7567C43.4136 42.524 43.0899 42.3992 42.7663 42.3992C42.7007 42.3992 42.6351 42.4034 42.5695 42.414C42.1782 42.4753 41.8313 42.7228 41.6155 43.0909C41.5816 43.148 41.5478 43.2051 41.5139 43.2623C41.4737 43.33 41.4336 43.3955 41.3955 43.4632L28.2461 65.9818L28.6565 66.225C29.1642 66.5254 29.6951 66.6946 30.2367 66.7264C30.334 66.7327 30.4292 66.7348 30.5223 66.7348C30.5244 66.7348 30.5265 66.7348 30.5286 66.7348C30.5498 66.7348 30.5709 66.7348 30.5921 66.7348C30.6661 66.7348 30.738 66.7327 30.81 66.7285C30.8396 66.7285 30.8671 66.7221 30.8967 66.72C30.9602 66.7158 31.0215 66.7095 31.0829 66.701C31.1146 66.6968 31.1442 66.6925 31.1738 66.6862C31.2331 66.6777 31.2902 66.6693 31.3494 66.6566C31.3811 66.6502 31.4107 66.6439 31.4404 66.6354C31.4954 66.6227 31.5525 66.61 31.6075 66.5952C31.6371 66.5868 31.6667 66.5783 31.6984 66.5698C31.7513 66.555 31.8063 66.5381 31.8592 66.5191C31.8888 66.5085 31.9184 66.4979 31.9459 66.4873C31.9988 66.4683 32.0496 66.4471 32.1004 66.426C32.13 66.4133 32.1575 66.4006 32.185 66.3879C32.2358 66.3646 32.2844 66.3414 32.3331 66.316C32.3606 66.3012 32.3881 66.2864 32.4156 66.2716C32.4642 66.2441 32.5108 66.2166 32.5573 66.1891C32.5848 66.1721 32.6102 66.1552 32.6377 66.1383C32.6842 66.1087 32.7286 66.0769 32.7731 66.0452C32.7985 66.0262 32.8238 66.0093 32.8492 65.9881C32.8936 65.9543 32.936 65.9204 32.9783 65.8845C33.0037 65.8633 33.0269 65.8443 33.0523 65.8231C33.0946 65.7871 33.1327 65.7491 33.1729 65.711C33.1962 65.6877 33.2194 65.6666 33.2427 65.6433C33.2829 65.6031 33.321 65.5608 33.359 65.5206C33.3823 65.4952 33.4035 65.4719 33.4267 65.4466C33.4648 65.4021 33.5008 65.3556 33.5388 65.3091C33.56 65.2837 33.579 65.2583 33.6002 65.2329C33.6383 65.1821 33.6764 65.1292 33.7123 65.0742C33.7292 65.051 33.7462 65.0277 33.761 65.0044C33.8139 64.9262 33.8625 64.8458 33.9112 64.7612C36.2064 60.7927 38.4974 56.8241 40.7884 52.8535L43.293 48.5127L44.8669 49.8264L45.2413 50.1395L45.6157 50.4525L47.4223 51.9587L47.7967 52.2718L47.7882 52.2803Z" fill="#00E1B6"/>
<path d="M47.6718 53.4374L44.7314 58.489L44.2935 58.1231C44.2194 58.0617 44.1475 58.0046 44.0735 57.9475C43.9021 57.8121 43.7244 57.6725 43.5615 57.5033C42.3981 56.2869 42.1781 54.4867 43.0179 53.0228C43.0454 52.9742 43.0877 52.9001 43.1427 52.807C43.204 52.6992 43.2823 52.5638 43.3754 52.4051C43.6271 51.9672 43.9804 51.358 44.3696 50.6832L44.3739 50.6874L44.7441 50.9963H44.7483L45.1185 51.3093H45.1227L46.9229 52.8134L47.2974 53.1265L47.6718 53.4396V53.4374ZM52.1395 39.9707C50.6693 38.6507 49.1653 37.3201 47.7099 36.034C47.1049 35.4988 46.4977 34.9615 45.8927 34.4263L44.5241 33.212C43.8281 32.5943 43.13 31.9745 42.4319 31.3568C42.1167 31.0776 41.7148 30.9527 41.3256 31.0162C40.9342 31.0776 40.5873 31.3251 40.3715 31.6931C40.3377 31.7524 40.3017 31.8095 40.2678 31.8666C40.2277 31.9322 40.1896 31.9978 40.1494 32.0655L28.301 52.3565L27 54.5861L27.4104 54.8294C27.9181 55.1298 28.4491 55.299 28.9906 55.3286C29.0879 55.335 29.1831 55.3371 29.2762 55.3371C29.2783 55.3371 29.2804 55.3371 29.2846 55.3371C29.2995 55.3371 29.3143 55.3371 29.3291 55.3371C29.4095 55.3371 29.4877 55.335 29.566 55.3286C29.5914 55.3286 29.6168 55.3244 29.6421 55.3223C29.7098 55.3159 29.7754 55.3117 29.841 55.3032C29.8706 55.299 29.8981 55.2948 29.9277 55.2905C29.9891 55.2821 30.0483 55.2715 30.1075 55.2609C30.1372 55.2546 30.1668 55.2482 30.1985 55.2419C30.2556 55.2292 30.3106 55.2165 30.3656 55.2017C30.3973 55.1932 30.427 55.1848 30.4566 55.1742C30.5095 55.1594 30.5623 55.1425 30.6131 55.1234C30.6448 55.1128 30.6745 55.1002 30.7041 55.0896C30.7549 55.0705 30.8035 55.0515 30.8522 55.0303C30.8818 55.0177 30.9135 55.0028 30.9431 54.9902C30.9897 54.969 31.0383 54.9457 31.0849 54.9225C31.1145 54.9076 31.1441 54.8907 31.1737 54.8738C31.2181 54.8484 31.2625 54.823 31.307 54.7955C31.3366 54.7765 31.3662 54.7596 31.3937 54.7405C31.436 54.713 31.4783 54.6834 31.5206 54.6538C31.5481 54.6326 31.5777 54.6136 31.6052 54.5925C31.6454 54.5607 31.6856 54.529 31.7258 54.4951C31.7533 54.4719 31.7808 54.4507 31.8062 54.4275C31.8443 54.3936 31.8824 54.3576 31.9204 54.3217C31.9458 54.2963 31.9733 54.273 31.9966 54.2476C32.0347 54.2096 32.0706 54.1694 32.1066 54.1313C32.1299 54.1059 32.1553 54.0784 32.1785 54.053C32.2145 54.0107 32.2504 53.9663 32.2843 53.9219C32.3054 53.8944 32.3287 53.869 32.3499 53.8415C32.3879 53.7907 32.4239 53.7399 32.4599 53.6871C32.4768 53.6617 32.4937 53.6384 32.5106 53.613C32.5635 53.5347 32.6122 53.4544 32.6608 53.3697C34.9984 49.3293 37.3697 45.2191 39.665 41.2442L42.0427 37.1234L47.7479 41.8852C47.9129 42.0227 48.0779 42.1602 48.2408 42.2998L48.4503 42.4754C48.7253 42.706 48.7887 43.0212 48.6195 43.3194C48.4587 43.6071 48.2958 43.8906 48.1329 44.1741C47.9701 44.4575 47.8072 44.7389 47.6422 45.0223L47.7585 45.126C47.841 45.2 47.9256 45.2741 48.0081 45.346C48.1308 45.4539 48.2535 45.5639 48.3762 45.6718C48.7803 46.0293 49.1843 46.3868 49.5883 46.7464L49.6137 46.7697C49.7957 46.9304 49.9776 47.0933 50.1616 47.2541C50.1616 47.2541 50.1637 47.2562 50.1658 47.2583C50.2864 47.3662 50.407 47.472 50.5297 47.5799C50.5297 47.5799 50.5318 47.582 50.5339 47.5841C50.6545 47.692 50.7751 47.7978 50.8978 47.9056C50.8978 47.9056 50.8999 47.9078 50.902 47.9099C51.0289 47.6899 51.1559 47.472 51.2849 47.252C51.6403 46.6406 52.0041 46.0145 52.368 45.3904C52.3828 45.365 52.3976 45.3418 52.4103 45.3164C52.5245 45.1218 52.6388 44.9271 52.753 44.7325C53.0153 44.2862 53.1845 43.8504 53.2649 43.4104C53.2755 43.3469 53.2861 43.2835 53.2945 43.22C53.303 43.1481 53.3093 43.0762 53.3157 43.0021C53.3897 41.7858 52.9815 40.7407 52.1332 39.9813" fill="#0F0F0F"/>
<path d="M63.8828 48.6013L66.8169 34.8215H70.3602L67.4261 48.6013H63.8828Z" fill="#0F0F0F"/>
<path d="M83.6434 46.556C83.5778 46.8458 83.4826 47.1208 83.3578 47.3831C83.233 47.6454 83.0553 47.8781 82.8268 48.0812C82.5962 48.2843 82.3043 48.4493 81.951 48.5741C81.5957 48.6989 81.1705 48.7603 80.6712 48.7603C80.4343 48.7603 80.2016 48.7476 79.9731 48.7201C79.7426 48.6947 79.5226 48.6376 79.3131 48.5529C79.1037 48.4683 78.9133 48.3393 78.742 48.1701C78.5706 47.9987 78.4268 47.7766 78.3083 47.5016L74.8623 39.4101C74.7438 39.188 74.6381 39.0759 74.5471 39.0759C74.5069 39.0759 74.4562 39.095 74.3906 39.1351C74.325 39.1753 74.2721 39.2853 74.234 39.4694L72.2857 48.6037H69.0957L71.5961 36.8315C71.6871 36.4126 71.8288 36.0615 72.0192 35.778C72.2096 35.4966 72.4423 35.2724 72.7173 35.1095C72.9923 34.9466 73.2948 34.8303 73.6227 34.7647C73.9506 34.6991 74.2975 34.6653 74.6656 34.6653C75.1648 34.6653 75.6196 34.7478 76.0342 34.9107C76.4467 35.0757 76.7535 35.3866 76.9502 35.8457L80.4343 44.0154C80.4597 44.081 80.4893 44.1529 80.5231 44.2312C80.5549 44.3094 80.6183 44.3496 80.7093 44.3496C80.8151 44.3496 80.887 44.3073 80.9251 44.2227C80.9653 44.1381 80.9907 44.0683 81.0033 44.0154L82.9516 34.8218H86.1417L83.6413 46.5539L83.6434 46.556Z" fill="#0F0F0F"/>
<path d="M86.9913 48.6012C86.4392 48.6012 86.0203 48.4636 85.7305 48.1886C85.4407 47.9136 85.2969 47.5392 85.2969 47.0675C85.2969 46.8834 85.3159 46.693 85.3561 46.4963L87.3827 36.9495C87.5413 36.2006 87.8163 35.6591 88.2098 35.3248C88.6033 34.9906 89.1744 34.8235 89.9233 34.8235H95.0616C95.9543 34.8235 96.7053 34.942 97.3166 35.1768C97.928 35.4116 98.4188 35.7479 98.7932 36.1816C99.1676 36.6152 99.4363 37.1335 99.6013 37.7364C99.7663 38.3393 99.8467 39.0099 99.8467 39.7439C99.8467 40.1374 99.8276 40.5245 99.7874 40.9053C99.7472 41.2861 99.688 41.6859 99.6097 42.1068C99.413 43.1688 99.1697 44.108 98.882 44.9225C98.5922 45.7369 98.1924 46.4159 97.6805 46.9596C97.1686 47.5054 96.5128 47.9136 95.711 48.1908C94.9093 48.4679 93.9066 48.6033 92.6987 48.6033H86.9892L86.9913 48.6012ZM89.2548 44.8611C89.2146 45.0176 89.1956 45.1573 89.1956 45.2736C89.1956 45.483 89.2569 45.6311 89.3817 45.7157C89.5065 45.8004 89.7202 45.8427 90.0206 45.8427H90.8287C91.6156 45.8427 92.2946 45.794 92.8658 45.6946C93.437 45.5952 93.9214 45.4069 94.3233 45.1234C94.7231 44.8421 95.0553 44.4444 95.3176 43.9324C95.5799 43.4205 95.802 42.7457 95.986 41.9059C96.0516 41.5653 96.1066 41.2205 96.1532 40.8714C96.1997 40.5245 96.223 40.2241 96.223 39.9766C96.223 39.5049 96.1616 39.1135 96.0368 38.8047C95.912 38.4958 95.7047 38.2505 95.417 38.0664C95.1272 37.8824 94.7506 37.7554 94.2853 37.6835C93.8199 37.6116 93.2508 37.5756 92.5823 37.5756H91.7743C91.3935 37.5756 91.1206 37.6454 90.9577 37.7829C90.7927 37.9204 90.6721 38.1806 90.5939 38.5614L89.2548 44.8611Z" fill="#0F0F0F"/>
<path d="M99.418 48.6013L102.352 34.8215H105.895L102.961 48.6013H99.418Z" fill="#0F0F0F"/>
<path d="M110.932 36.2793C111.103 36.0043 111.278 35.7674 111.463 35.5707C111.647 35.3739 111.854 35.2068 112.082 35.0693C112.311 34.9318 112.582 34.8303 112.89 34.7647C113.199 34.6991 113.563 34.6653 113.984 34.6653C114.614 34.6653 115.128 34.7668 115.528 34.9699C115.928 35.173 116.201 35.6088 116.345 36.2793L118.883 48.6016H115.359L114.788 45.4518H108.981L107.071 48.6016H103.193L110.929 36.2793H110.932ZM110.42 42.7758H114.494L113.667 38.4053C113.641 38.2996 113.62 38.2023 113.608 38.1092C113.595 38.0182 113.555 37.9717 113.489 37.9717C113.423 37.9717 113.358 38.0182 113.292 38.1092C113.227 38.2001 113.161 38.2996 113.096 38.4053L110.417 42.7758H110.42Z" fill="#0F0F0F"/>
<path d="M62.2506 54.3894C62.4092 53.6406 62.6842 53.099 63.0777 52.7648C63.4712 52.4305 64.0423 52.2634 64.7912 52.2634H71.7593C72.9017 52.2634 73.7182 52.5681 74.2111 53.1794C74.704 53.7886 74.9494 54.639 74.9494 55.7285C74.9494 55.8998 74.9388 56.1156 74.9198 56.3779C74.9007 56.6402 74.8775 56.8835 74.85 57.1056C74.7569 57.7233 74.6194 58.3008 74.4353 58.8381C74.2513 59.3754 73.9996 59.8451 73.678 60.2449C73.3565 60.6447 72.9567 60.9599 72.4765 61.1905C71.9963 61.421 71.4167 61.5353 70.7334 61.5353H69.7497L69.7307 61.6347L73.1767 66.0432H69.022L66.4835 62.4597C66.2868 62.1847 66.0964 61.8928 65.9124 61.5839C65.7283 61.2751 65.6374 60.9768 65.6374 60.6891C65.6374 60.6235 65.6437 60.5516 65.6564 60.4733C65.6691 60.3951 65.6881 60.302 65.7156 60.1983C65.8214 59.6737 66.0689 59.3352 66.4645 59.185C66.8579 59.0349 67.3762 58.9587 68.0193 58.9587H69.1807C69.8364 58.9587 70.3061 58.7916 70.5874 58.4573C70.8688 58.1231 71.0824 57.607 71.2263 56.9131C71.2516 56.7566 71.2749 56.6085 71.2961 56.471C71.3151 56.3335 71.3257 56.2044 71.3257 56.0881C71.3257 55.6946 71.2136 55.4196 70.9915 55.261C70.7672 55.1023 70.3949 55.024 69.8703 55.024H66.5829C66.2424 55.024 65.9885 55.0938 65.8256 55.2313C65.6606 55.3688 65.54 55.6079 65.4618 55.9506L63.3167 66.0496H59.7734L62.2527 54.3958L62.2506 54.3894Z" fill="#FF005C"/>
<path d="M81.3628 63.4455C82.3464 63.4455 83.1185 63.2191 83.6749 62.7664C84.2334 62.3137 84.6163 61.5945 84.8257 60.6108L86.6174 52.2634H90.1607L88.3309 60.7864C88.094 61.8632 87.783 62.7516 87.3959 63.4539C87.0088 64.1563 86.5201 64.7105 85.9299 65.1167C85.3397 65.5228 84.6437 65.8063 83.8441 65.9628C83.0424 66.1194 82.1116 66.1997 81.0497 66.1997C80.1697 66.1997 79.3785 66.1151 78.6783 65.9438C77.976 65.7724 77.3794 65.5143 76.8865 65.1653C76.3937 64.8184 76.0171 64.3847 75.7548 63.8664C75.4925 63.3482 75.3613 62.741 75.3613 62.0451C75.3613 61.823 75.374 61.6051 75.4015 61.3957C75.4269 61.1862 75.4608 60.9831 75.4988 60.7864L77.3287 52.2634H80.872L79.0802 60.6108C79.002 60.9641 78.9618 61.2878 78.9618 61.5755C78.9618 62.2312 79.1585 62.7072 79.552 63.0034C79.9454 63.2995 80.5483 63.4455 81.3628 63.4455Z" fill="#FF005C"/>
<path d="M103.45 63.9975C103.384 64.2873 103.289 64.5623 103.164 64.8246C103.04 65.0869 102.862 65.3196 102.633 65.5227C102.403 65.7258 102.111 65.8908 101.758 66.0156C101.402 66.1404 100.977 66.2017 100.478 66.2017C100.241 66.2017 100.008 66.189 99.7798 66.1615C99.5492 66.1362 99.3292 66.079 99.1198 65.9944C98.9103 65.9098 98.72 65.7808 98.5486 65.6115C98.3773 65.4402 98.2334 65.2181 98.115 64.9431L94.669 56.8516C94.5505 56.6295 94.4447 56.5174 94.3538 56.5174C94.3136 56.5174 94.2628 56.5364 94.1972 56.5766C94.1316 56.6168 94.0788 56.7268 94.0407 56.9109L92.0924 66.0452H88.9023L91.4028 54.2729C91.4937 53.8541 91.6355 53.5029 91.8258 53.2195C92.0162 52.9381 92.2489 52.7139 92.5239 52.551C92.7989 52.386 93.1014 52.2718 93.4293 52.2062C93.7572 52.1406 94.1041 52.1089 94.4722 52.1089C94.9715 52.1089 95.4263 52.1914 95.8409 52.3543C96.2534 52.5193 96.5601 52.8302 96.7569 53.2893L100.241 61.459C100.266 61.5246 100.296 61.5965 100.33 61.6748C100.362 61.753 100.425 61.7932 100.516 61.7932C100.622 61.7932 100.694 61.7509 100.732 61.6663C100.772 61.5817 100.797 61.5119 100.81 61.459L102.758 52.2654H105.948L103.448 63.9975H103.45Z" fill="#FF005C"/>
<path d="M119.259 63.9975C119.193 64.2873 119.098 64.5623 118.973 64.8246C118.848 65.0869 118.671 65.3196 118.442 65.5227C118.212 65.7258 117.92 65.8908 117.566 66.0156C117.213 66.1404 116.786 66.2017 116.287 66.2017C116.05 66.2017 115.817 66.189 115.589 66.1615C115.358 66.1362 115.14 66.079 114.929 65.9944C114.719 65.9098 114.529 65.7808 114.357 65.6115C114.186 65.4402 114.042 65.2181 113.924 64.9431L110.478 56.8516C110.359 56.6295 110.253 56.5174 110.163 56.5174C110.122 56.5174 110.072 56.5364 110.004 56.5766C109.936 56.6168 109.885 56.7268 109.847 56.9109L107.899 66.0452H104.709L107.209 54.2729C107.3 53.8541 107.442 53.5029 107.632 53.2195C107.823 52.9381 108.056 52.7139 108.331 52.551C108.606 52.386 108.908 52.2718 109.236 52.2062C109.564 52.1406 109.911 52.1089 110.279 52.1089C110.778 52.1089 111.233 52.1914 111.648 52.3543C112.06 52.5193 112.367 52.8302 112.564 53.2893L116.048 61.459C116.073 61.5246 116.103 61.5965 116.136 61.6748C116.168 61.753 116.232 61.7932 116.323 61.7932C116.428 61.7932 116.5 61.7509 116.538 61.6663C116.579 61.5817 116.604 61.5119 116.617 61.459L118.565 52.2654H121.755L119.255 63.9975H119.259Z" fill="#FF005C"/>
<path d="M120.518 66.0432L123.452 52.2634H126.995L124.061 66.0432H120.518Z" fill="#FF005C"/>
<path d="M140.284 63.9975C140.218 64.2873 140.123 64.5623 139.998 64.8246C139.874 65.0869 139.696 65.3196 139.467 65.5227C139.237 65.7258 138.945 65.8908 138.592 66.0156C138.236 66.1404 137.811 66.2017 137.312 66.2017C137.075 66.2017 136.842 66.189 136.614 66.1615C136.383 66.1362 136.163 66.079 135.954 65.9944C135.744 65.9098 135.554 65.7808 135.383 65.6115C135.211 65.4402 135.067 65.2181 134.949 64.9431L131.503 56.8516C131.384 56.6295 131.279 56.5174 131.188 56.5174C131.148 56.5174 131.097 56.5364 131.031 56.5766C130.966 56.6168 130.913 56.7268 130.875 56.9109L128.926 66.0452H125.736L128.237 54.2729C128.328 53.8541 128.469 53.5029 128.66 53.2195C128.85 52.9381 129.083 52.7139 129.358 52.551C129.633 52.386 129.935 52.2718 130.263 52.2062C130.591 52.1406 130.938 52.1089 131.306 52.1089C131.805 52.1089 132.26 52.1914 132.675 52.3543C133.087 52.5193 133.394 52.8302 133.591 53.2893L137.075 61.459C137.1 61.5246 137.13 61.5965 137.164 61.6748C137.196 61.753 137.259 61.7932 137.35 61.7932C137.456 61.7932 137.528 61.7509 137.566 61.6663C137.606 61.5817 137.631 61.5119 137.644 61.459L139.592 52.2654H142.782L140.282 63.9975H140.284Z" fill="#FF005C"/>
<path d="M150.758 55.0198C150.062 55.0198 149.468 55.0812 148.977 55.206C148.484 55.3308 148.065 55.5508 147.716 55.866C147.369 56.1812 147.078 56.6042 146.841 57.1352C146.604 57.6662 146.401 58.3389 146.231 59.1533C146.075 59.9276 145.994 60.5643 145.994 61.0635C145.994 61.916 146.234 62.4999 146.714 62.8151C147.192 63.1303 147.958 63.2868 149.007 63.2868H150.502C150.843 63.2868 151.099 63.217 151.27 63.0795C151.442 62.942 151.558 62.703 151.626 62.3603L152.334 59.0327H155.878L154.835 63.9341C154.678 64.683 154.401 65.2203 154.008 65.5482C153.614 65.8761 153.043 66.0411 152.294 66.0411H147.452C146.534 66.0411 145.751 65.929 145.11 65.7069C144.467 65.4847 143.943 65.1653 143.536 64.7528C143.13 64.3403 142.834 63.8411 142.65 63.2572C142.466 62.6734 142.375 62.0133 142.375 61.2793C142.375 60.8985 142.394 60.4987 142.434 60.0778C142.474 59.6568 142.54 59.2189 142.631 58.7577C142.84 57.6683 143.107 56.7164 143.428 55.904C143.75 55.0896 144.19 54.4148 144.746 53.8775C145.305 53.3402 146.003 52.9361 146.843 52.6675C147.683 52.3988 148.732 52.2634 149.993 52.2634H157.001L156.411 55.0198H150.76H150.758Z" fill="#FF005C"/>
</g>
<defs>
<clipPath id="clip0_1133_1905">
<rect width="130" height="50" fill="white" transform="translate(27 25)"/>
</clipPath>
</defs>
</svg>
