<svg width="60" height="61" viewBox="0 0 60 61" fill="none" xmlns="http://www.w3.org/2000/svg">
<rect x="0.5" y="1.06641" width="59" height="59" rx="15.5" fill="#202020" stroke="#292929"/>
<g clip-path="url(#clip0_598_740)">
<path d="M40.2283 18.5664H19.7717C19.3018 18.5664 18.8512 18.7531 18.5189 19.0853C18.1867 19.4176 18 19.8682 18 20.3381V40.7947C18 41.2646 18.1867 41.7152 18.5189 42.0475C18.8512 42.3798 19.3018 42.5664 19.7717 42.5664H40.2283C40.6982 42.5664 41.1488 42.3798 41.4811 42.0475C41.8133 41.7152 42 41.2646 42 40.7947V20.3381C42 19.8682 41.8133 19.4176 41.4811 19.0853C41.1488 18.7531 40.6982 18.5664 40.2283 18.5664ZM25.1533 39.0114H21.545V27.5497H25.1533V39.0114ZM23.3467 25.9614C22.9374 25.9591 22.5379 25.8356 22.1987 25.6065C21.8596 25.3774 21.5958 25.0529 21.4409 24.6741C21.2859 24.2953 21.2466 23.879 21.328 23.4779C21.4094 23.0767 21.6078 22.7087 21.8982 22.4202C22.1885 22.1317 22.5578 21.9357 22.9595 21.8569C23.3611 21.7781 23.7771 21.82 24.155 21.9774C24.5328 22.1348 24.8555 22.4006 25.0825 22.7412C25.3094 23.0819 25.4303 23.4821 25.43 23.8914C25.4339 24.1654 25.3825 24.4374 25.279 24.6912C25.1755 24.945 25.022 25.1753 24.8276 25.3685C24.6332 25.5616 24.4018 25.7137 24.1474 25.8156C23.893 25.9174 23.6207 25.967 23.3467 25.9614ZM38.4533 39.0214H34.8467V32.7597C34.8467 30.9131 34.0617 30.3431 33.0483 30.3431C31.9783 30.3431 30.9283 31.1497 30.9283 32.8064V39.0214H27.32V27.5581H30.79V29.1464H30.8367C31.185 28.4414 32.405 27.2364 34.2667 27.2364C36.28 27.2364 38.455 28.4314 38.455 31.9314L38.4533 39.0214Z" fill="#0A66C2"/>
</g>
<g clip-path="url(#clip1_598_740)">
<path d="M40.2283 18.5664H19.7717C19.3018 18.5664 18.8512 18.7531 18.5189 19.0853C18.1867 19.4176 18 19.8682 18 20.3381V40.7947C18 41.2646 18.1867 41.7152 18.5189 42.0475C18.8512 42.3798 19.3018 42.5664 19.7717 42.5664H40.2283C40.6982 42.5664 41.1488 42.3798 41.4811 42.0475C41.8133 41.7152 42 41.2646 42 40.7947V20.3381C42 19.8682 41.8133 19.4176 41.4811 19.0853C41.1488 18.7531 40.6982 18.5664 40.2283 18.5664ZM25.1533 39.0114H21.545V27.5497H25.1533V39.0114ZM23.3467 25.9614C22.9374 25.9591 22.5379 25.8356 22.1987 25.6065C21.8596 25.3774 21.5958 25.0529 21.4409 24.6741C21.2859 24.2953 21.2466 23.879 21.328 23.4779C21.4094 23.0767 21.6078 22.7087 21.8982 22.4202C22.1885 22.1317 22.5578 21.9357 22.9595 21.8569C23.3611 21.7781 23.7771 21.82 24.155 21.9774C24.5328 22.1348 24.8555 22.4006 25.0825 22.7412C25.3094 23.0819 25.4303 23.4821 25.43 23.8914C25.4339 24.1654 25.3825 24.4374 25.279 24.6912C25.1755 24.945 25.022 25.1753 24.8276 25.3685C24.6332 25.5616 24.4018 25.7137 24.1474 25.8156C23.893 25.9174 23.6207 25.967 23.3467 25.9614ZM38.4533 39.0214H34.8467V32.7597C34.8467 30.9131 34.0617 30.3431 33.0483 30.3431C31.9783 30.3431 30.9283 31.1497 30.9283 32.8064V39.0214H27.32V27.5581H30.79V29.1464H30.8367C31.185 28.4414 32.405 27.2364 34.2667 27.2364C36.28 27.2364 38.455 28.4314 38.455 31.9314L38.4533 39.0214Z" fill="#0A66C2"/>
</g>
<defs>
<clipPath id="clip0_598_740">
<rect width="24" height="24" fill="white" transform="translate(18 18.5664)"/>
</clipPath>
<clipPath id="clip1_598_740">
<rect width="24" height="24" fill="white" transform="translate(18 18.5664)"/>
</clipPath>
</defs>
</svg>
