<svg width="32" height="32" viewBox="0 0 32 32" fill="none" xmlns="http://www.w3.org/2000/svg">
<rect width="32" height="32" rx="16" fill="#FFB800"/>
<path d="M12.9511 8.22778C10.5108 8.22778 8.53247 10.2061 8.53247 12.6464C8.53247 15.0868 10.5108 17.0651 12.9511 17.0651H19.3505C19.9396 17.0651 20.4171 16.5875 20.4171 15.9985C20.4171 15.4094 19.9396 14.9319 19.3505 14.9319H13.1035C11.7571 14.9319 10.6656 13.8405 10.6656 12.4941C10.6656 11.1477 11.7571 10.0562 13.1035 10.0562H20.4171V8.22778H12.9511Z" fill="#090909"/>
<path d="M19.3505 11.5798C21.7908 11.5798 23.7691 13.5581 23.7691 15.9985C23.7691 18.4388 21.7908 20.4171 19.3505 20.4171H11.8845V18.284H19.1981C20.5445 18.284 21.636 17.1925 21.636 15.8461C21.636 14.4997 20.5445 13.4082 19.1981 13.4082H12.7987C12.2938 13.4082 11.8845 12.9989 11.8845 12.494C11.8845 11.9891 12.2938 11.5798 12.7987 11.5798H19.3505Z" fill="#090909"/>
<rect x="11.8845" y="18.2839" width="2.13313" height="6.09467" fill="#090909"/>
</svg>
