<svg width="77" height="77" viewBox="0 0 77 77" fill="none" xmlns="http://www.w3.org/2000/svg">
<rect width="76.2593" height="76.2593" rx="20" fill="#FFB800"/>
<path d="M30.4858 20C24.6946 20 20 24.6946 20 30.4858C20 36.2769 24.6946 40.9716 30.4858 40.9716H45.6721C47.0699 40.9716 48.2031 39.8384 48.2031 38.4405C48.2031 37.0426 47.0699 35.9095 45.6721 35.9095H30.8474C27.6522 35.9095 25.0621 33.3193 25.0621 30.1242C25.0621 26.9291 27.6522 24.3389 30.8474 24.3389H48.2031V20H30.4858Z" fill="#090909"/>
<path d="M45.6724 27.9546C51.4636 27.9546 56.1582 32.6492 56.1582 38.4404C56.1582 44.2315 51.4636 48.9261 45.6724 48.9261H27.9551V43.864H45.3108C48.506 43.864 51.0961 41.2739 51.0961 38.0788C51.0961 34.8837 48.506 32.2935 45.3108 32.2935H30.1245C28.9264 32.2935 27.9551 31.3222 27.9551 30.1241C27.9551 28.9259 28.9264 27.9546 30.1245 27.9546H45.6724Z" fill="#090909"/>
<rect x="27.9551" y="43.864" width="5.0621" height="14.4631" fill="#090909"/>
</svg>
