<svg width="183" height="100" viewBox="0 0 183 100" fill="none" xmlns="http://www.w3.org/2000/svg">
<rect width="183" height="100" fill="#FFFDF8"/>
<g clip-path="url(#clip0_1133_1921)">
<path d="M85.2815 46.8968C85.2815 50.1426 80.3476 52.2783 73.1717 53.9868C72.8226 54.7131 72.4735 56.0793 72.4735 57.7878C72.4735 59.2403 73.5208 60.2226 74.8649 60.2226C76.6588 60.2226 77.9058 59.3683 80.0974 57.7446C80.5455 57.7446 80.8442 58.0869 80.7452 58.4709C77.7042 61.6735 74.8649 62.3566 72.7703 62.3566C69.7798 62.3566 68.7344 59.965 68.7344 57.8726C68.7344 55.1818 70.7281 49.9715 76.1604 46.3832C78.7515 44.6747 80.6948 44.334 82.1416 44.334C84.1353 44.334 85.2815 45.7865 85.2815 46.8968ZM77.357 47.7078C75.4137 49.5011 74.2675 51.4656 73.6683 52.7054C76.9575 51.8511 78.5032 51.0401 80.3457 49.5443C81.8914 48.3061 82.289 47.0247 82.289 46.6408C82.289 46.2137 82.0408 45.6586 81.1428 45.6586C80.4447 45.6586 79.1491 46.0425 77.3551 47.7078H77.357Z" fill="#13171C"/>
<path d="M95.9948 46.7688C95.9948 47.4519 95.4964 47.9222 95.0969 48.0934C94.7478 48.1782 94.4491 48.0934 94.1504 47.751C93.3029 47.0247 92.6551 46.3848 91.1094 46.3848C89.6646 46.3848 89.0653 47.4519 89.0653 48.0934C89.0653 48.9908 89.3136 49.8867 90.7604 51.9791C92.0055 53.7724 92.7541 54.8411 92.6551 56.7191C92.6047 57.8726 91.9084 59.4531 90.064 60.8193C88.7685 61.8015 86.9241 62.3566 85.0312 62.3566C83.1383 62.3566 81.9902 61.0752 81.9902 60.093C81.9902 59.6659 82.19 59.1955 82.7369 58.6836C83.1364 58.3845 83.6834 58.3845 84.0829 58.6836C84.7307 59.3235 86.2259 60.3921 87.5215 60.3921C88.7181 60.3921 89.9128 59.3251 89.9128 57.9573C89.9128 57.2311 89.3155 55.9081 88.0685 54.1996C86.7729 52.4063 86.3249 50.9537 86.3249 50.2274C86.3249 48.5621 87.1724 47.3239 89.3155 45.7434C90.7604 44.6763 92.3564 44.334 93.0042 44.334C94.8486 44.334 95.9948 45.7002 95.9948 46.7688Z" fill="#13171C"/>
<path d="M101.676 53.5577L101.826 53.6425C105.363 49.0305 110.297 44.332 114.036 44.332C115.979 44.332 116.827 45.2295 116.827 46.6389C116.827 47.3219 116.427 48.6465 116.03 49.6288C115.132 51.7644 111.544 58.7265 111.395 59.0672C111.195 59.4943 111.144 59.8783 111.494 59.8783C112.341 59.8783 114.732 58.4689 116.179 56.9748C116.877 56.89 116.976 57.2307 116.976 57.5731C115.082 60.307 111.144 62.3563 108.404 62.3563C107.956 62.3563 107.207 61.8012 107.207 61.2892C107.207 60.9053 107.357 60.6062 108.404 58.4705C109.451 56.3781 111.294 52.1931 112.44 50.0575C112.84 49.288 113.487 47.7939 113.487 46.9396C113.487 46.4277 113.437 45.9142 112.69 45.9142C111.494 45.9142 108.553 48.0498 105.813 50.9965C103.171 53.8153 101.127 57.1459 98.1872 61.8444C97.9389 62.2283 97.7392 62.3563 97.2893 62.3563C96.7404 62.3563 95.3945 62.2283 95.8444 61.2461L101.626 47.7923C101.876 47.2372 101.876 46.81 101.476 46.81C100.33 46.81 98.5848 47.7075 96.942 48.9457C96.5426 48.9457 96.2943 48.6465 96.3447 48.3058C98.2376 46.0853 101.279 44.3336 103.771 44.3336C104.967 44.3336 105.514 45.1031 105.066 46.0853L101.678 53.5593L101.676 53.5577Z" fill="#13171C"/>
<path d="M134.569 46.8968C134.569 50.1426 129.635 52.2783 122.459 53.9868C122.11 54.7131 121.761 56.0793 121.761 57.7878C121.761 59.2403 122.808 60.2226 124.152 60.2226C125.946 60.2226 127.191 59.3683 129.385 57.7446C129.833 57.7446 130.131 58.0869 130.032 58.4709C126.991 61.6735 124.152 62.3566 122.057 62.3566C119.067 62.3566 118.021 59.965 118.021 57.8726C118.021 55.1818 120.015 49.9715 125.448 46.3832C128.039 44.6747 129.982 44.334 131.429 44.334C133.422 44.334 134.569 45.7865 134.569 46.8968ZM126.644 47.7078C124.701 49.5011 123.555 51.4656 122.955 52.7054C126.245 51.8511 127.79 51.0401 129.633 49.5443C131.179 48.3061 131.576 47.0247 131.576 46.6408C131.576 46.2137 131.326 45.6586 130.43 45.6586C129.732 45.6586 128.436 46.0425 126.642 47.7078H126.644Z" fill="#13171C"/>
<path d="M145.282 46.7688C145.282 47.4519 144.783 47.9222 144.384 48.0934C144.035 48.1782 143.736 48.0934 143.438 47.751C142.59 47.0247 141.942 46.3848 140.397 46.3848C138.952 46.3848 138.352 47.4519 138.352 48.0934C138.352 48.9908 138.603 49.8867 140.047 51.9791C141.294 53.7724 142.041 54.8411 141.942 56.7191C141.892 57.8726 141.196 59.4531 139.351 60.8193C138.056 61.8015 136.211 62.3566 134.318 62.3566C132.425 62.3566 131.277 61.0752 131.277 60.093C131.277 59.6659 131.477 59.1955 132.024 58.6836C132.424 58.3845 132.971 58.3845 133.37 58.6836C134.018 59.3235 135.513 60.3921 136.809 60.3921C138.005 60.3921 139.2 59.3251 139.2 57.9573C139.2 57.2311 138.603 55.9081 137.356 54.1996C136.06 52.4063 135.612 50.9537 135.612 50.2274C135.612 48.5621 136.46 47.3239 138.603 45.7434C140.047 44.6763 141.642 44.334 142.291 44.334C144.136 44.334 145.282 45.7002 145.282 46.7688Z" fill="#13171C"/>
<path d="M156.344 46.7688C156.344 47.4519 155.846 47.9222 155.446 48.0934C155.097 48.1782 154.799 48.0934 154.5 47.751C153.653 47.0247 153.005 46.3848 151.459 46.3848C150.014 46.3848 149.415 47.4519 149.415 48.0934C149.415 48.9908 149.665 49.8867 151.11 51.9791C152.355 53.7724 153.104 54.8411 153.003 56.7191C152.952 57.8726 152.256 59.4531 150.412 60.8193C149.116 61.8015 147.272 62.3566 145.379 62.3566C143.486 62.3566 142.34 61.0752 142.34 60.093C142.34 59.6659 142.54 59.1955 143.087 58.6836C143.486 58.3845 144.033 58.3845 144.432 58.6836C145.08 59.3235 146.576 60.3921 147.871 60.3921C149.068 60.3921 150.262 59.3251 150.262 57.9573C150.262 57.2311 149.665 55.9081 148.418 54.1996C147.123 52.4063 146.674 50.9537 146.674 50.2274C146.674 48.5621 147.522 47.3239 149.665 45.7434C151.11 44.6763 152.706 44.334 153.354 44.334C155.198 44.334 156.344 45.7002 156.344 46.7688Z" fill="#13171C"/>
<path d="M88.4933 30.9854C88.3495 30.923 88.189 30.8943 88.0266 30.9023C87.1548 30.9023 85.9432 31.2254 84.3826 31.9085C82.5084 32.7803 80.7723 33.8538 79.2154 35.1032C77.0723 36.7989 75.1607 38.6978 73.5217 40.7646C70.1447 44.9831 67.0664 48.7857 64.283 52.1724C61.8637 55.1767 59.1643 58.0082 56.2074 60.6366C58.4176 57.8114 60.3255 54.8231 61.9104 51.7052C63.5737 48.4434 65.1959 45.0087 66.8125 41.3997C67.7104 39.4161 68.7241 37.474 69.8498 35.5783C70.3202 34.9064 70.7197 34.2009 71.0464 33.4698C71.0408 33.425 71.0296 33.3802 71.0146 33.3387C70.9997 33.3211 70.9792 33.3083 70.9568 33.3003C70.9344 33.2923 70.9082 33.2891 70.884 33.2907C70.3706 33.2907 69.4857 33.9498 68.2835 35.2471C67.0813 36.5445 65.4647 38.4098 63.4897 40.8366C59.967 45.2823 56.7562 49.1425 53.8589 52.4155C50.9617 55.6902 48.1167 58.2258 45.3278 60.0255C49.767 55.6726 53.0936 51.6604 55.3076 47.9874C57.5216 44.3144 58.6099 41.1422 58.5688 38.4722C58.5222 35.9094 57.6373 33.865 55.8751 32.3388C54.1166 30.8143 51.7906 30.032 48.8877 30C45.8505 30.0416 42.8711 30.7087 40.1979 31.9453C37.0468 33.385 34.2354 35.3127 31.9038 37.6307C30.0855 39.3793 28.5977 41.3613 27.4963 43.505C26.5685 45.2695 26.0608 47.178 26.0066 49.1137C25.9413 50.747 26.5611 52.3467 27.7539 53.6217C28.9431 54.8263 30.6232 55.5958 32.4508 55.7734C33.1807 59.8463 35.0082 63.0554 37.9297 65.4006C40.0915 67.1459 42.7927 68.3185 45.7123 68.7808C48.632 69.2432 51.645 68.9728 54.391 68.005C55.9609 67.4099 56.7767 66.9027 56.8365 66.4948C56.8365 66.4068 56.7394 66.3556 56.5807 66.3556C56.129 66.474 55.6996 66.6484 55.3038 66.8707C54.4451 67.2515 53.5491 67.5666 52.625 67.813C51.2884 68.1553 49.9014 68.3281 48.5069 68.3281C44.7435 68.3281 41.1275 67.0819 38.4151 64.8455C35.656 62.577 33.974 59.5823 33.3823 55.8214C34.7992 55.7638 36.1974 55.5238 37.5284 55.1063C38.8874 54.6616 40.1624 54.0425 41.3067 53.273C43.7728 51.6572 45.8747 49.6704 47.5138 47.4115C48.9493 45.3191 49.6624 43.3834 49.6811 41.5661C49.6811 40.3279 49.332 39.3937 48.6749 38.7474C48.3202 38.421 47.8853 38.1635 47.4036 37.9971C46.9201 37.8291 46.4012 37.7539 45.8803 37.7779C44.4821 37.7779 42.9308 38.3042 41.2209 39.3265C39.285 40.5727 37.6161 42.0972 36.2907 43.8345C35.0306 45.4007 34.045 47.1156 33.3599 48.9249C32.7196 50.6558 32.3966 52.4603 32.4003 54.2744V54.9175C31.62 54.8775 30.8565 54.6967 30.164 54.388C29.4695 54.0792 28.8591 53.6489 28.37 53.1258C27.3862 52.0796 26.8747 50.6462 26.856 48.8529C26.856 47.1716 27.4105 45.3399 28.5007 43.3146C29.7533 41.0894 31.4166 39.0529 33.4252 37.282C35.5496 35.3015 38.0754 33.6698 40.8811 32.462C43.1605 31.4366 45.6825 30.8687 48.2568 30.8015C50.9169 30.8015 52.9162 31.4398 54.2678 32.662C55.6193 33.8842 56.3175 35.7047 56.3231 38.0483C56.3455 40.2287 55.4606 43.0827 53.6536 46.6325C51.8466 50.1823 49.0651 54.1112 45.2662 58.4353C43.9109 59.9247 42.8524 61.0701 42.0703 61.8892C41.2881 62.7082 40.8961 63.2153 40.8774 63.4377C40.8774 63.5897 41.0361 63.6617 41.3441 63.6617C41.7193 63.6889 42.9626 62.9338 45.072 61.398C47.1927 59.8575 49.9499 57.3699 53.3941 53.9321C57.6205 49.576 61.5333 45.0039 65.1119 40.2399C63.2656 43.369 61.6173 46.5813 60.1724 49.8623C59.0075 52.5931 58.0611 54.7847 57.3442 56.4181C56.5378 58.1442 55.5764 59.8143 54.4694 61.4124C53.6405 62.5227 53.1981 63.2857 53.1552 63.7129C53.157 63.7369 53.1701 63.7577 53.1869 63.7753C53.2056 63.7929 53.2298 63.804 53.2578 63.8088C53.3027 63.836 53.3568 63.8504 53.4109 63.8488C54.1184 63.8488 56.0337 62.2075 59.1793 58.8817C62.3248 55.5558 66.6352 50.4974 72.1795 43.7081C73.8633 41.5133 75.704 39.4081 77.6921 37.4068C79.4898 35.6135 81.6235 34.0905 84.0055 32.8987C85.0659 32.3852 86.1934 31.9837 87.3657 31.7005C88.1908 31.5325 88.6053 31.3566 88.637 31.1614C88.6351 31.123 88.6202 31.0862 88.5959 31.0558C88.5717 31.0238 88.5381 30.9982 88.497 30.9822L88.4933 30.9854ZM34.6293 47.9155C35.5981 45.863 36.9609 43.9625 38.6597 42.294C39.8021 41.1406 41.1462 40.1503 42.649 39.3553C43.629 38.8146 44.7491 38.4914 45.9102 38.413C46.2537 38.397 46.5953 38.4434 46.9164 38.5474C47.2375 38.6514 47.5287 38.813 47.7733 39.0209C48.0197 39.2529 48.2082 39.5248 48.3277 39.8224C48.4472 40.1183 48.4938 40.4335 48.4677 40.747C48.4677 41.3981 48.141 42.3436 47.4839 43.5658C46.6756 44.9719 45.7142 46.3077 44.6147 47.5587C43.2613 49.1265 41.738 50.579 40.0635 51.8988C38.9919 52.7643 37.8028 53.5161 36.5222 54.1384C35.5347 54.6184 34.4239 54.8823 33.2889 54.9047C33.2927 54.7255 33.2852 54.5448 33.2665 54.3656V53.7145C33.2945 51.726 33.7575 49.76 34.6311 47.9171L34.6293 47.9155Z" fill="#13171C"/>
</g>
<defs>
<clipPath id="clip0_1133_1921">
<rect width="130.342" height="39" fill="white" transform="translate(26 30)"/>
</clipPath>
</defs>
</svg>
